<?xml version="1.0" encoding="utf-8"?>
<!-- Generator: Adobe Illustrator 25.2.0, SVG Export Plug-In . SVG Version: 6.00 Build 0)  -->
<svg version="1.1" id="Layer_1" xmlns="http://www.w3.org/2000/svg" xmlns:xlink="http://www.w3.org/1999/xlink" x="0px" y="0px"
	 viewBox="0 0 840 840" style="enable-background:new 0 0 840 840;" xml:space="preserve">
<style type="text/css">
	.st0{display:none;fill:#0054A6;}
	.st1{enable-background:new    ;}
	.st2{fill:#3C733D;}
	.st3{fill:#6CB765;}
	.st4{clip-path:url(#SVGID_2_);enable-background:new    ;}
	.st5{fill:#3E763F;}
	.st6{clip-path:url(#SVGID_4_);enable-background:new    ;}
	.st7{clip-path:url(#SVGID_6_);enable-background:new    ;}
	.st8{fill:#417941;}
	.st9{fill:#6FBC68;}
</style>
<path class="st0" d="M273,249c0,0,72-52,205-43s0,72,0,72L273,249z"/>
<g>
	<g>
		<g class="st1">
			<g>
				<polygon class="st2" points="687.94,588.37 672.64,594.01 197.15,576.97 212.45,571.32 				"/>
			</g>
			<g>
				<path class="st3" d="M236.28,361.17c1.35,0.17,2.72,0.34,4.1,0.52c304.68,39.63,440.42,217.33,447.56,226.68l-475.49-17.04
					C198.73,558.97-61.82,324.31,236.28,361.17z"/>
			</g>
			<g class="st1">
				<defs>
					<path id="SVGID_1_" class="st1" d="M109.32,370.53l15.3-5.65c-100.29,37.01,76.59,196.32,87.83,206.44l-15.3,5.65
						C185.91,566.85,9.03,407.54,109.32,370.53z"/>
				</defs>
				<clipPath id="SVGID_2_">
					<use xlink:href="#SVGID_1_"  style="overflow:visible;"/>
				</clipPath>
				<g class="st4">
					<path class="st5" d="M212.45,571.32l-15.3,5.65c-11.23-10.12-188.12-169.43-87.83-206.44l15.3-5.65
						C24.33,401.89,201.21,561.2,212.45,571.32"/>
				</g>
			</g>
		</g>
	</g>
</g>
<g>
	<g>
		<g class="st1">
			<g class="st1">
				<defs>
					<path id="SVGID_3_" class="st1" d="M661.57,486.32l-25.35,8.18c-4.68-7.07-93.52-141.5-475.69-179.54l25.35-8.18
						C568.05,344.82,656.89,479.24,661.57,486.32z"/>
				</defs>
				<clipPath id="SVGID_4_">
					<use xlink:href="#SVGID_3_"  style="overflow:visible;"/>
				</clipPath>
				<g class="st6">
					<path class="st5" d="M661.57,486.32l-25.35,8.18c-4.68-7.07-93.52-141.5-475.69-179.54l25.35-8.18
						C568.05,344.82,656.89,479.24,661.57,486.32"/>
				</g>
			</g>
			<g class="st1">
				<defs>
					<path id="SVGID_5_" class="st1" d="M340.26,231.96l25.35-8.18c-107.59,34.73-174.19,79.29-179.72,83l-25.35,8.18
						C166.07,311.25,232.66,266.69,340.26,231.96z"/>
				</defs>
				<clipPath id="SVGID_6_">
					<use xlink:href="#SVGID_5_"  style="overflow:visible;"/>
				</clipPath>
				<g class="st7">
					<path class="st8" d="M185.88,306.77l-25.35,8.18c3.78-2.53,36.05-24.13,90.42-48.63l25.35-8.18
						C221.93,282.65,189.66,304.24,185.88,306.77"/>
					<path class="st5" d="M276.3,258.15l-25.35,8.18c25.22-11.37,55.21-23.36,89.31-34.37l25.35-8.18
						C331.5,234.78,301.52,246.78,276.3,258.15"/>
				</g>
			</g>
			<g>
				<path class="st9" d="M633.79,182.94c216.67,13.23,37.22,288.87,27.78,303.38c-4.68-7.07-93.52-141.5-475.69-179.54
					c9.04-6.05,180.9-121.05,428.22-124.28C621,182.41,627.57,182.56,633.79,182.94z"/>
			</g>
		</g>
	</g>
</g>
</svg>
