<?xml version="1.0" encoding="utf-8"?>
<!-- Generator: Adobe Illustrator 25.2.0, SVG Export Plug-In . SVG Version: 6.00 Build 0)  -->
<svg version="1.1" id="Layer_1" xmlns="http://www.w3.org/2000/svg" xmlns:xlink="http://www.w3.org/1999/xlink" x="0px" y="0px"
	 viewBox="0 0 595.28 841.89" style="enable-background:new 0 0 595.28 841.89;" xml:space="preserve">
<style type="text/css">
	.st0{enable-background:new    ;}
	.st1{fill:#896143;}
	.st2{fill:#8C6345;}
	.st3{fill:#8F6546;}
	.st4{fill:#8D6445;}
	.st5{fill:#8E6546;}
	.st6{fill:#715035;}
	.st7{fill:#A37351;}
	.st8{fill:#868061;}
	.st9{fill:#868060;}
	.st10{fill:#8E8867;}
	.st11{fill:#928B69;}
	.st12{fill:#ABA27B;}
	.st13{fill:#C7BC8D;}
	.st14{clip-path:url(#SVGID_2_);enable-background:new    ;}
	.st15{fill:#A22016;}
	.st16{fill:#A62118;}
	.st17{clip-path:url(#SVGID_4_);enable-background:new    ;}
	.st18{fill:#8C170B;}
	.st19{fill:#B0251C;}
	.st20{fill:#CD2D24;}
	.st21{clip-path:url(#SVGID_6_);enable-background:new    ;}
	.st22{fill:#010101;}
	.st23{clip-path:url(#SVGID_8_);enable-background:new    ;}
	.st24{clip-path:url(#SVGID_10_);enable-background:new    ;}
	.st25{clip-path:url(#SVGID_12_);enable-background:new    ;}
	.st26{clip-path:url(#SVGID_14_);enable-background:new    ;}
	.st27{clip-path:url(#SVGID_16_);enable-background:new    ;}
	.st28{clip-path:url(#SVGID_18_);enable-background:new    ;}
	.st29{clip-path:url(#SVGID_20_);enable-background:new    ;}
	.st30{clip-path:url(#SVGID_22_);enable-background:new    ;}
	.st31{clip-path:url(#SVGID_24_);enable-background:new    ;}
	.st32{clip-path:url(#SVGID_26_);enable-background:new    ;}
	.st33{clip-path:url(#SVGID_28_);enable-background:new    ;}
	.st34{clip-path:url(#SVGID_30_);enable-background:new    ;}
	.st35{clip-path:url(#SVGID_32_);enable-background:new    ;}
	.st36{clip-path:url(#SVGID_34_);enable-background:new    ;}
	.st37{display:none;fill:#879ACE;}
	.st38{display:none;}
	.st39{display:inline;}
	.st40{clip-path:url(#SVGID_36_);enable-background:new    ;}
	.st41{fill:#225C83;}
	.st42{fill:#235F86;}
	.st43{fill:#25628A;}
	.st44{fill:#26648D;}
	.st45{fill:#286790;}
	.st46{fill:#296994;}
	.st47{fill:#2B6C97;}
	.st48{fill:#2C6E9A;}
	.st49{fill:#2E719E;}
	.st50{clip-path:url(#SVGID_38_);enable-background:new    ;}
	.st51{fill:#205A80;}
	.st52{fill:#2F73A0;}
	.st53{clip-path:url(#SVGID_40_);enable-background:new    ;}
	.st54{clip-path:url(#SVGID_42_);enable-background:new    ;}
	.st55{fill:#3784B8;}
	.st56{fill:#2E729F;}
	.st57{fill:#2A6A95;}
	.st58{clip-path:url(#SVGID_44_);enable-background:new    ;}
	.st59{clip-path:url(#SVGID_46_);enable-background:new    ;}
	.st60{fill:#8F190D;}
	.st61{fill:#981D12;}
	.st62{clip-path:url(#SVGID_48_);enable-background:new    ;}
	.st63{fill:#931A0F;}
	.st64{fill:#971C11;}
	.st65{fill:#9A1D13;}
	.st66{fill:#9E1F15;}
	.st67{clip-path:url(#SVGID_50_);enable-background:new    ;}
	.st68{clip-path:url(#SVGID_52_);enable-background:new    ;}
	.st69{fill:#AA2319;}
	.st70{fill:#AE241B;}
	.st71{clip-path:url(#SVGID_54_);enable-background:new    ;}
	.st72{clip-path:url(#SVGID_56_);enable-background:new    ;}
	.st73{clip-path:url(#SVGID_58_);enable-background:new    ;}
	.st74{clip-path:url(#SVGID_60_);enable-background:new    ;}
	.st75{clip-path:url(#SVGID_62_);enable-background:new    ;}
	.st76{clip-path:url(#SVGID_64_);enable-background:new    ;}
	.st77{clip-path:url(#SVGID_66_);enable-background:new    ;}
	.st78{clip-path:url(#SVGID_68_);enable-background:new    ;}
	.st79{clip-path:url(#SVGID_70_);enable-background:new    ;}
	.st80{clip-path:url(#SVGID_72_);enable-background:new    ;}
</style>
<g>
	<g>
		<g class="st0">
			<g>
				<polygon class="st1" points="272.97,77.27 281.91,82.28 299.28,98.43 290.34,93.42 				"/>
			</g>
			<g>
				<polygon class="st1" points="308.78,103.36 317.72,108.37 312.03,150.59 303.09,145.57 				"/>
			</g>
			<g>
				<polygon class="st2" points="303.09,145.57 312.03,150.59 312.76,195.73 303.82,190.72 				"/>
			</g>
			<g>
				<polygon class="st3" points="303.82,190.72 312.76,195.73 318.21,218.95 309.26,213.94 				"/>
			</g>
			<g>
				<polygon class="st4" points="388.42,209.52 397.36,214.53 414.1,239.85 405.16,234.83 				"/>
			</g>
			<g>
				<polygon class="st5" points="405.16,234.83 414.1,239.85 416.41,255.38 407.47,250.37 				"/>
			</g>
			<g>
				<polygon class="st6" points="407.47,250.37 416.41,255.38 189.87,293.93 180.93,288.92 				"/>
			</g>
			<g>
				<path class="st7" d="M272.97,77.27l17.37,16.15l18.44,9.94l-5.69,42.22l0.73,45.14l5.45,23.22l52.83-6.98l26.32,2.56
					l16.74,25.32l2.31,15.53l-226.54,38.55c-0.82-2.11-16.44-42.3,15.91-52.84c10.78-3.51,21.19-5.84,30.27-7.39
					c18.16-3.09,30.38-3.05,31.03-3.04l-16.1-74.72l-14.01-33.83l15.76-34.87L272.97,77.27z"/>
			</g>
		</g>
	</g>
</g>
<g>
	<g>
		<g class="st0">
			<g>
				<polygon class="st8" points="196.31,371.45 204.93,376.25 180.52,387.16 171.9,382.35 				"/>
			</g>
			<g>
				<polygon class="st9" points="218.73,374.94 227.35,379.74 204.93,376.25 196.31,371.45 				"/>
			</g>
			<g>
				<polygon class="st10" points="233.4,358.54 242.02,363.34 227.35,379.74 218.73,374.94 				"/>
			</g>
			<g>
				<polygon class="st11" points="245.99,341.47 254.61,346.27 242.02,363.34 233.4,358.54 				"/>
			</g>
			<g>
				<polygon class="st9" points="269.76,347.55 278.38,352.35 254.61,346.27 245.99,341.47 				"/>
			</g>
			<g>
				<polygon class="st9" points="287.47,354 296.09,358.81 278.38,352.35 269.76,347.55 				"/>
			</g>
			<g>
				<polygon class="st9" points="343.89,371.95 352.51,376.76 344.18,373.93 335.56,369.13 				"/>
			</g>
			<g>
				<polygon class="st12" points="335.56,369.13 344.18,373.93 356.92,465.73 348.3,460.93 				"/>
			</g>
			<g>
				<polygon class="st9" points="348.3,460.93 356.92,465.73 317.34,472 308.72,467.2 				"/>
			</g>
			<g>
				<polygon class="st9" points="383.47,416.03 392.09,420.84 382.96,423.42 374.33,418.62 				"/>
			</g>
			<g>
				<polygon class="st12" points="374.33,418.62 382.96,423.42 388.14,460.79 379.52,455.98 				"/>
			</g>
			<g>
				<polygon class="st9" points="379.52,455.98 388.14,460.79 364.69,464.5 356.07,459.7 				"/>
			</g>
			<g>
				<polygon class="st12" points="395.02,265.9 403.64,270.7 429.12,454.3 420.49,449.49 				"/>
			</g>
			<g>
				<polygon class="st13" points="395.02,265.9 420.49,449.49 388.81,454.51 383.47,416.03 374.33,418.62 379.52,455.98 
					356.07,459.7 343.89,371.95 335.56,369.13 348.3,460.93 308.72,467.2 307.6,459.11 287.47,354 269.76,347.55 245.99,341.47 
					233.4,358.54 218.73,374.94 196.31,371.45 171.9,382.35 160.89,302.98 				"/>
			</g>
			<g>
				<polygon class="st9" points="420.49,449.49 429.12,454.3 397.43,459.32 388.81,454.51 				"/>
			</g>
		</g>
	</g>
</g>
<g>
	<g>
		<g class="st0">
			<g class="st0">
				<defs>
					<path id="SVGID_1_" class="st0" d="M236.77,377.23l8.62,4.8c3.06,1.71,5.03,3.09,5.32,3.29l-8.62-4.8
						C241.8,380.32,239.83,378.94,236.77,377.23z"/>
				</defs>
				<clipPath id="SVGID_2_">
					<use xlink:href="#SVGID_1_"  style="overflow:visible;"/>
				</clipPath>
				<g class="st14">
					<path class="st15" d="M236.77,377.23l8.62,4.8c0.54,0.3,1.04,0.59,1.51,0.86l-8.62-4.8
						C237.81,377.82,237.31,377.53,236.77,377.23"/>
					<path class="st16" d="M238.28,378.1l8.62,4.8c2.19,1.29,3.57,2.26,3.82,2.43l-8.62-4.8
						C241.85,380.35,240.47,379.39,238.28,378.1"/>
				</g>
			</g>
			<g class="st0">
				<defs>
					<path id="SVGID_3_" class="st0" d="M293.5,349.77l8.62,4.8c1.01,0.56,1.64,0.95,1.79,1.05l-8.62-4.8
						C295.14,350.72,294.51,350.33,293.5,349.77z"/>
				</defs>
				<clipPath id="SVGID_4_">
					<use xlink:href="#SVGID_3_"  style="overflow:visible;"/>
				</clipPath>
				<g class="st17">
					<path class="st15" d="M293.5,349.77l8.62,4.8c0.44,0.24,0.8,0.45,1.09,0.62l-8.62-4.8C294.3,350.23,293.93,350.01,293.5,349.77
						"/>
					<path class="st16" d="M294.59,350.39l8.62,4.8c0.38,0.22,0.62,0.37,0.7,0.42l-8.62-4.8
						C295.2,350.76,294.96,350.62,294.59,350.39"/>
				</g>
			</g>
			<g>
				<polygon class="st18" points="311.48,467.49 320.1,472.3 207.92,490.06 199.3,485.26 				"/>
			</g>
			<g>
				<polygon class="st19" points="295.29,350.82 303.91,355.62 320.1,472.3 311.48,467.49 				"/>
			</g>
			<g>
				<path class="st20" d="M263.09,342.47c14.87-2.36,31.33,7.82,32.19,8.35l16.19,116.68L199.3,485.26l-12.74-91.8
					c3.85-15.79,12.01-21.96,20.92-23.37c16.08-2.55,33.68,9.78,34.61,10.43C241.99,353.5,251.84,344.25,263.09,342.47z"/>
			</g>
		</g>
	</g>
</g>
<g>
	<g>
		<g class="st0">
			<g class="st0">
				<defs>
					<path id="SVGID_5_" class="st0" d="M198.63,242.51l8.62,4.8c-15.42,2.45-26.23,16.96-24.08,32.34l-8.62-4.8
						C172.4,259.47,183.21,244.96,198.63,242.51z"/>
				</defs>
				<clipPath id="SVGID_6_">
					<use xlink:href="#SVGID_5_"  style="overflow:visible;"/>
				</clipPath>
				<g class="st21">
					<path class="st22" d="M198.63,242.51l8.62,4.8c-6.23,0.99-11.7,3.94-15.87,8.13l-8.62-4.8
						C186.93,246.45,192.41,243.5,198.63,242.51"/>
					<path class="st22" d="M182.76,250.64l8.62,4.8c-1.04,1.04-2,2.16-2.87,3.34l-8.62-4.8
						C180.76,252.8,181.72,251.68,182.76,250.64"/>
					<path class="st22" d="M179.89,253.98l8.62,4.8c-0.71,0.97-1.37,1.99-1.96,3.04l-8.62-4.8
						C178.52,255.96,179.18,254.95,179.89,253.98"/>
					<path class="st22" d="M177.94,257.02l8.62,4.8c-0.54,0.96-1.02,1.96-1.45,2.98l-8.62-4.8
						C176.91,258.97,177.4,257.98,177.94,257.02"/>
					<path class="st22" d="M176.49,259.99l8.62,4.8c-0.41,0.98-0.77,1.99-1.07,3.02l-8.62-4.8
						C175.72,261.99,176.07,260.98,176.49,259.99"/>
					<path class="st22" d="M175.42,263.02l8.62,4.8c-0.31,1.05-0.55,2.11-0.74,3.2l-8.62-4.8
						C174.86,265.13,175.11,264.06,175.42,263.02"/>
					<path class="st22" d="M174.68,266.21l8.62,4.8c-0.2,1.18-0.33,2.37-0.38,3.58l-8.62-4.8
						C174.35,268.58,174.48,267.39,174.68,266.21"/>
					<path class="st22" d="M174.3,269.79l8.62,4.8c-0.06,1.49,0,3,0.18,4.53l-8.62-4.8C174.3,272.79,174.24,271.28,174.3,269.79"/>
					<path class="st22" d="M174.48,274.32l8.62,4.8c0.02,0.18,0.04,0.36,0.07,0.54l-8.62-4.8
						C174.53,274.67,174.5,274.49,174.48,274.32"/>
				</g>
			</g>
			<g>
				<polygon class="st22" points="174.55,274.85 183.17,279.66 184.52,289.35 175.89,284.54 				"/>
			</g>
			<g class="st0">
				<defs>
					<path id="SVGID_7_" class="st0" d="M281.04,90.2l8.62,4.8c-5.65-3.15-12.29-4.61-19.11-3.79c-0.42,0.05-0.83,0.11-1.24,0.17
						c-8.36,1.32-15.79,5.73-21,12.53c-5.38,7.02-7.68,15.66-6.47,24.31c0.67,4.81,2.36,9.25,5.02,13.21
						c11.62,17.31,20.37,45.51,23.01,64.41l-8.62-4.8c-2.64-18.91-11.39-47.11-23.01-64.41c-2.66-3.96-4.35-8.4-5.02-13.21
						c-1.21-8.65,1.09-17.29,6.47-24.31c5.21-6.8,12.64-11.21,21-12.53c0.41-0.07,0.82-0.12,1.24-0.17
						C268.75,85.59,275.39,87.05,281.04,90.2z"/>
				</defs>
				<clipPath id="SVGID_8_">
					<use xlink:href="#SVGID_7_"  style="overflow:visible;"/>
				</clipPath>
				<g class="st23">
					<path class="st22" d="M281.04,90.2l8.62,4.8c-5.65-3.15-12.29-4.61-19.11-3.79c-0.42,0.05-0.83,0.11-1.24,0.17
						c-6.91,1.09-13.2,4.3-18.11,9.22l-8.62-4.8c4.91-4.92,11.19-8.13,18.11-9.22c0.41-0.07,0.82-0.12,1.24-0.17
						C268.75,85.59,275.39,87.05,281.04,90.2"/>
					<path class="st22" d="M242.58,95.8l8.62,4.8c-1.03,1.03-1.99,2.13-2.89,3.31c-0.14,0.18-0.27,0.36-0.4,0.53l-8.62-4.8
						c0.13-0.18,0.27-0.36,0.4-0.53C240.58,97.93,241.55,96.83,242.58,95.8"/>
					<path class="st22" d="M239.28,99.64l8.62,4.8c-0.83,1.13-1.58,2.3-2.25,3.5l-8.62-4.8C237.7,101.94,238.45,100.77,239.28,99.64
						"/>
					<path class="st22" d="M237.03,103.14l8.62,4.8c-0.61,1.09-1.16,2.21-1.64,3.36l-8.62-4.8
						C235.87,105.35,236.42,104.23,237.03,103.14"/>
					<path class="st22" d="M235.39,106.5l8.62,4.8c-0.47,1.11-0.87,2.25-1.2,3.4l-8.62-4.8
						C234.53,108.74,234.93,107.61,235.39,106.5"/>
					<path class="st22" d="M234.19,109.9l8.62,4.8c-0.35,1.19-0.62,2.39-0.83,3.61l-8.62-4.8
						C233.57,112.29,233.84,111.08,234.19,109.9"/>
					<path class="st22" d="M233.36,113.5l8.62,4.8c-0.23,1.34-0.37,2.7-0.43,4.07l-8.62-4.8
						C232.98,116.21,233.13,114.85,233.36,113.5"/>
					<path class="st22" d="M232.93,117.58l8.62,4.8c-0.07,1.72,0,3.46,0.2,5.2l-8.62-4.8C232.92,121.03,232.86,119.3,232.93,117.58"
						/>
					<path class="st22" d="M233.13,122.77l8.62,4.8c0.03,0.22,0.05,0.43,0.08,0.65c0.67,4.81,2.36,9.25,5.02,13.21
						c11.62,17.31,20.37,45.51,23.01,64.41l-8.62-4.8c-2.64-18.91-11.39-47.11-23.01-64.41c-2.66-3.96-4.35-8.4-5.02-13.21
						C233.19,123.2,233.16,122.99,233.13,122.77"/>
				</g>
			</g>
			<g>
				<polygon class="st22" points="257.73,233.11 266.35,237.91 207.25,247.32 198.63,242.51 				"/>
			</g>
			<g>
				<polygon class="st22" points="261.24,201.04 269.86,205.84 273.06,228.8 264.44,223.99 				"/>
			</g>
			<g class="st0">
				<defs>
					<path id="SVGID_9_" class="st0" d="M264.44,223.99l8.62,4.8c0.6,4.35-2.4,8.43-6.71,9.11l-8.62-4.8
						C262.04,232.42,265.05,228.34,264.44,223.99z"/>
				</defs>
				<clipPath id="SVGID_10_">
					<use xlink:href="#SVGID_9_"  style="overflow:visible;"/>
				</clipPath>
				<g class="st24">
					<path class="st22" d="M264.44,223.99l8.62,4.8c0.01,0.05,0.01,0.1,0.02,0.14l-8.62-4.8
						C264.46,224.09,264.45,224.04,264.44,223.99"/>
					<path class="st22" d="M264.46,224.14l8.62,4.8c0.05,0.44,0.07,0.87,0.05,1.3l-8.62-4.8
						C264.53,225.01,264.51,224.57,264.46,224.14"/>
					<path class="st22" d="M264.51,225.43l8.62,4.8c-0.01,0.35-0.05,0.69-0.11,1.02l-8.62-4.8
						C264.46,226.12,264.5,225.78,264.51,225.43"/>
					<path class="st22" d="M264.41,226.46l8.62,4.8c-0.05,0.31-0.12,0.61-0.21,0.91l-8.62-4.8
						C264.28,227.07,264.35,226.77,264.41,226.46"/>
					<path class="st22" d="M264.2,227.37l8.62,4.8c-0.09,0.29-0.19,0.58-0.3,0.86l-8.62-4.8
						C264.01,227.95,264.11,227.66,264.2,227.37"/>
					<path class="st22" d="M263.89,228.22l8.62,4.8c-0.12,0.29-0.26,0.57-0.41,0.84l-8.62-4.8
						C263.63,228.79,263.77,228.51,263.89,228.22"/>
					<path class="st22" d="M263.48,229.07l8.62,4.8c-0.17,0.3-0.35,0.58-0.55,0.85l-8.62-4.8
						C263.13,229.65,263.32,229.36,263.48,229.07"/>
					<path class="st22" d="M262.93,229.92l8.62,4.8c-0.24,0.33-0.51,0.64-0.8,0.93l-8.62-4.8
						C262.42,230.56,262.69,230.25,262.93,229.92"/>
					<path class="st22" d="M262.13,230.85l8.62,4.8c-1.16,1.16-2.68,1.98-4.4,2.26l-8.62-4.8
						C259.46,232.83,260.97,232.01,262.13,230.85"/>
				</g>
			</g>
			<g>
				<polygon class="st22" points="178.1,300.29 186.72,305.1 196.65,376.26 188.03,371.45 				"/>
			</g>
			<g class="st0">
				<defs>
					<path id="SVGID_11_" class="st0" d="M288.76,76.22l8.62,4.8c11.69,6.52,20.54,17.89,23.3,31.78c1.68,8.39,1.09,17.1-1.68,25.19
						c-5.56,16.22-5.95,42.75-3.47,60.58l-8.62-4.8c-2.48-17.82-2.09-44.36,3.47-60.58c2.77-8.09,3.36-16.8,1.68-25.19
						C309.3,94.11,300.46,82.74,288.76,76.22z"/>
				</defs>
				<clipPath id="SVGID_12_">
					<use xlink:href="#SVGID_11_"  style="overflow:visible;"/>
				</clipPath>
				<g class="st25">
					<path class="st22" d="M288.76,76.22l8.62,4.8c0.33,0.18,0.66,0.37,0.98,0.56l-8.62-4.8C289.42,76.59,289.09,76.4,288.76,76.22"
						/>
					<path class="st22" d="M289.75,76.78l8.62,4.8c1.82,1.07,3.56,2.26,5.22,3.56l-8.62-4.8C293.31,79.04,291.56,77.85,289.75,76.78
						"/>
					<path class="st22" d="M294.97,80.34l8.62,4.8c2.05,1.61,3.98,3.39,5.74,5.31l-8.62-4.8C298.95,83.73,297.02,81.95,294.97,80.34
						"/>
					<path class="st22" d="M300.71,85.66l8.62,4.8c5.6,6.11,9.64,13.75,11.35,22.34c0.25,1.24,0.45,2.49,0.6,3.74l-8.62-4.8
						c-0.15-1.25-0.35-2.5-0.6-3.74C310.35,99.4,306.31,91.77,300.71,85.66"/>
					<path class="st22" d="M312.66,111.75l8.62,4.8c0.31,2.57,0.4,5.16,0.3,7.74l-8.62-4.8
						C313.06,116.91,312.97,114.32,312.66,111.75"/>
					<path class="st22" d="M312.96,119.49l8.62,4.8c-0.09,2.06-0.3,4.12-0.65,6.16l-8.62-4.8
						C312.65,123.61,312.87,121.55,312.96,119.49"/>
					<path class="st22" d="M312.31,125.65l8.62,4.8c-0.31,1.83-0.73,3.65-1.26,5.45l-8.62-4.8
						C311.57,129.3,311.99,127.48,312.31,125.65"/>
					<path class="st22" d="M311.05,131.09l8.62,4.8c-0.21,0.7-0.43,1.4-0.67,2.1c-0.28,0.83-0.55,1.68-0.81,2.56l-8.62-4.8
						c0.26-0.88,0.53-1.73,0.81-2.56C310.62,132.5,310.84,131.8,311.05,131.09"/>
					<path class="st22" d="M309.57,135.75l8.62,4.8c-0.86,2.93-1.57,6.14-2.14,9.52l-8.62-4.8
						C308,141.89,308.72,138.68,309.57,135.75"/>
					<path class="st22" d="M307.43,145.27l8.62,4.8c-0.97,5.68-1.55,11.86-1.81,18.09l-8.62-4.8
						C305.87,157.12,306.46,150.95,307.43,145.27"/>
					<path class="st22" d="M305.61,163.36l8.62,4.8c-0.4,9.73-0.01,19.59,0.98,27.89l-8.62-4.8
						C305.6,182.95,305.21,173.09,305.61,163.36"/>
					<path class="st22" d="M306.59,191.25l8.62,4.8c0.1,0.86,0.21,1.7,0.33,2.52l-8.62-4.8C306.8,192.95,306.69,192.1,306.59,191.25
						"/>
				</g>
			</g>
			<g>
				<polygon class="st22" points="306.92,193.77 315.54,198.57 317.65,213.65 309.03,208.85 				"/>
			</g>
			<g class="st0">
				<defs>
					<path id="SVGID_13_" class="st0" d="M307.04,229.76l-8.62-4.8c1.46,0.81,3.2,1.16,4.99,0.88l8.62,4.8
						C310.24,230.92,308.5,230.58,307.04,229.76z"/>
				</defs>
				<clipPath id="SVGID_14_">
					<use xlink:href="#SVGID_13_"  style="overflow:visible;"/>
				</clipPath>
				<g class="st26">
					<path class="st22" d="M303.41,225.84l8.62,4.8c-1.79,0.28-3.53-0.06-4.99-0.88l-8.62-4.8
						C299.88,225.77,301.62,226.12,303.41,225.84"/>
				</g>
			</g>
			<g class="st0">
				<defs>
					<path id="SVGID_15_" class="st0" d="M223.76,379.57l8.62,4.8c-3.94-2.19-8.63-3.13-13.46-2.36
						c-11.59,1.84-19.69,12.75-18.08,24.31l-8.62-4.8c-1.61-11.56,6.49-22.46,18.08-24.31
						C215.13,376.44,219.82,377.38,223.76,379.57z"/>
				</defs>
				<clipPath id="SVGID_16_">
					<use xlink:href="#SVGID_15_"  style="overflow:visible;"/>
				</clipPath>
				<g class="st27">
					<path class="st22" d="M223.76,379.57l8.62,4.8c-3.94-2.19-8.63-3.13-13.46-2.36c-4.67,0.74-8.78,2.96-11.91,6.1l-8.62-4.8
						c3.13-3.14,7.24-5.35,11.91-6.1C215.13,376.44,219.82,377.38,223.76,379.57"/>
					<path class="st22" d="M198.39,383.3l8.62,4.8c-0.78,0.78-1.5,1.62-2.15,2.51l-8.62-4.8
						C196.89,384.92,197.61,384.09,198.39,383.3"/>
					<path class="st22" d="M196.23,385.81l8.62,4.8c-0.54,0.73-1.03,1.49-1.47,2.28l-8.62-4.8
						C195.21,387.31,195.7,386.54,196.23,385.81"/>
					<path class="st22" d="M194.76,388.1l8.62,4.8c-0.41,0.72-0.77,1.47-1.09,2.24l-8.62-4.8
						C193.99,389.57,194.36,388.82,194.76,388.1"/>
					<path class="st22" d="M193.67,390.34l8.62,4.8c-0.31,0.74-0.58,1.5-0.81,2.27l-8.62-4.8
						C193.09,391.83,193.36,391.08,193.67,390.34"/>
					<path class="st22" d="M192.87,392.61l8.62,4.8c-0.23,0.79-0.42,1.59-0.56,2.41l-8.62-4.8
						C192.45,394.2,192.64,393.4,192.87,392.61"/>
					<path class="st22" d="M192.31,395.01l8.62,4.8c-0.15,0.89-0.25,1.79-0.28,2.7l-8.62-4.8
						C192.07,396.8,192.16,395.9,192.31,395.01"/>
					<path class="st22" d="M192.03,397.71l8.62,4.8c-0.05,1.12,0,2.26,0.14,3.41l-8.62-4.8
						C192.03,399.97,191.98,398.83,192.03,397.71"/>
					<path class="st22" d="M192.16,401.12l8.62,4.8c0.02,0.13,0.03,0.26,0.05,0.4l-8.62-4.8
						C192.2,401.38,192.18,401.25,192.16,401.12"/>
				</g>
			</g>
			<g>
				<polygon class="st22" points="192.21,401.51 200.84,406.32 211.19,480.5 202.57,475.69 				"/>
			</g>
			<g>
				<polygon class="st22" points="247.03,372.45 255.66,377.26 258.43,397.15 249.81,392.35 				"/>
			</g>
			<g class="st0">
				<defs>
					<path id="SVGID_17_" class="st0" d="M246.73,405.39l-8.62-4.8c1.46,0.81,3.2,1.16,4.99,0.88c4.31-0.68,7.32-4.77,6.71-9.11
						l8.62,4.8c0.61,4.34-2.4,8.43-6.71,9.11C249.93,406.55,248.19,406.2,246.73,405.39z"/>
				</defs>
				<clipPath id="SVGID_18_">
					<use xlink:href="#SVGID_17_"  style="overflow:visible;"/>
				</clipPath>
				<g class="st28">
					<path class="st22" d="M249.81,392.35l8.62,4.8c0.01,0.05,0.01,0.11,0.02,0.16l-8.62-4.8
						C249.83,392.45,249.82,392.4,249.81,392.35"/>
					<path class="st22" d="M249.83,392.51l8.62,4.8c0.05,0.43,0.07,0.87,0.05,1.29l-8.62-4.8
						C249.9,393.37,249.89,392.94,249.83,392.51"/>
					<path class="st22" d="M249.88,393.8l8.62,4.8c-0.01,0.34-0.05,0.68-0.11,1.02l-8.62-4.8
						C249.83,394.48,249.87,394.14,249.88,393.8"/>
					<path class="st22" d="M249.78,394.81l8.62,4.8c-0.05,0.31-0.12,0.61-0.21,0.91l-8.62-4.8
						C249.65,395.42,249.72,395.12,249.78,394.81"/>
					<path class="st22" d="M249.57,395.72l8.62,4.8c-0.09,0.29-0.19,0.58-0.3,0.85l-8.62-4.8
						C249.38,396.3,249.48,396.01,249.57,395.72"/>
					<path class="st22" d="M249.27,396.57l8.62,4.8c-0.12,0.29-0.26,0.57-0.41,0.84l-8.62-4.8
						C249.01,397.14,249.15,396.86,249.27,396.57"/>
					<path class="st22" d="M248.86,397.41l8.62,4.8c-0.17,0.3-0.35,0.58-0.55,0.85l-8.62-4.8
						C248.51,397.99,248.69,397.71,248.86,397.41"/>
					<path class="st22" d="M248.31,398.27l8.62,4.8c-0.24,0.33-0.51,0.64-0.8,0.93l-8.62-4.8
						C247.8,398.91,248.07,398.6,248.31,398.27"/>
					<path class="st22" d="M247.51,399.2l8.62,4.8c-1.16,1.16-2.68,1.98-4.41,2.26c-1.8,0.28-3.53-0.06-4.99-0.88l-8.62-4.8
						c1.46,0.81,3.2,1.16,4.99,0.88C244.83,401.18,246.35,400.36,247.51,399.2"/>
				</g>
			</g>
			<g class="st0">
				<defs>
					<path id="SVGID_19_" class="st0" d="M200.58,496.62l-8.62-4.8c1.46,0.81,3.2,1.16,4.99,0.88l8.62,4.8
						C203.78,497.78,202.04,497.43,200.58,496.62z"/>
				</defs>
				<clipPath id="SVGID_20_">
					<use xlink:href="#SVGID_19_"  style="overflow:visible;"/>
				</clipPath>
				<g class="st29">
					<path class="st22" d="M196.95,492.69l8.62,4.8c-1.79,0.28-3.53-0.06-4.99-0.88l-8.62-4.8
						C193.42,492.63,195.16,492.97,196.95,492.69"/>
				</g>
			</g>
			<g class="st0">
				<defs>
					<path id="SVGID_21_" class="st0" d="M278.58,350.51l8.62,4.8c-3.94-2.19-8.63-3.13-13.46-2.36
						c-11.59,1.84-19.69,12.75-18.08,24.31l-8.62-4.8c-1.61-11.56,6.49-22.46,18.08-24.31
						C269.95,347.38,274.64,348.32,278.58,350.51z"/>
				</defs>
				<clipPath id="SVGID_22_">
					<use xlink:href="#SVGID_21_"  style="overflow:visible;"/>
				</clipPath>
				<g class="st30">
					<path class="st22" d="M278.58,350.51l8.62,4.8c-3.94-2.19-8.63-3.13-13.46-2.36c-4.67,0.74-8.78,2.96-11.91,6.1l-8.62-4.8
						c3.13-3.14,7.24-5.35,11.91-6.1C269.95,347.38,274.64,348.32,278.58,350.51"/>
					<path class="st22" d="M253.21,354.24l8.62,4.8c-0.78,0.78-1.5,1.62-2.15,2.51l-8.62-4.8
						C251.71,355.87,252.43,355.03,253.21,354.24"/>
					<path class="st22" d="M251.05,356.75l8.62,4.8c-0.54,0.73-1.03,1.49-1.47,2.28l-8.62-4.8
						C250.03,358.25,250.52,357.48,251.05,356.75"/>
					<path class="st22" d="M249.58,359.04l8.62,4.8c-0.41,0.72-0.77,1.47-1.09,2.24l-8.62-4.8
						C248.81,360.51,249.18,359.76,249.58,359.04"/>
					<path class="st22" d="M248.49,361.28l8.62,4.8c-0.31,0.74-0.58,1.5-0.81,2.27l-8.62-4.8
						C247.91,362.78,248.18,362.02,248.49,361.28"/>
					<path class="st22" d="M247.69,363.55l8.62,4.8c-0.23,0.79-0.42,1.59-0.56,2.41l-8.62-4.8
						C247.27,365.14,247.46,364.34,247.69,363.55"/>
					<path class="st22" d="M247.13,365.95l8.62,4.8c-0.15,0.89-0.25,1.79-0.28,2.7l-8.62-4.8
						C246.89,367.74,246.98,366.84,247.13,365.95"/>
					<path class="st22" d="M246.85,368.65l8.62,4.8c-0.05,1.12,0,2.26,0.14,3.41l-8.62-4.8
						C246.85,370.91,246.8,369.77,246.85,368.65"/>
					<path class="st22" d="M246.98,372.06l8.62,4.8c0.02,0.13,0.03,0.26,0.05,0.4l-8.62-4.8C247.02,372.32,247,372.19,246.98,372.06
						"/>
				</g>
			</g>
			<g>
				<polygon class="st22" points="362.52,216.43 371.14,221.23 312.03,230.64 303.41,225.84 				"/>
			</g>
			<g class="st0">
				<defs>
					<path id="SVGID_23_" class="st0" d="M380.49,219.58l8.62,4.8c-5.25-2.93-11.51-4.17-17.97-3.15l-8.62-4.8
						C368.98,215.4,375.24,216.65,380.49,219.58z"/>
				</defs>
				<clipPath id="SVGID_24_">
					<use xlink:href="#SVGID_23_"  style="overflow:visible;"/>
				</clipPath>
				<g class="st31">
					<path class="st22" d="M380.49,219.58l8.62,4.8c-5.25-2.93-11.51-4.17-17.97-3.15l-8.62-4.8
						C368.98,215.4,375.24,216.65,380.49,219.58"/>
				</g>
			</g>
			<g class="st0">
				<defs>
					<path id="SVGID_25_" class="st0" d="M286.36,336.53l8.62,4.8c9.59,5.34,16.63,14.97,18.27,26.76l-8.62-4.8
						C302.99,351.5,295.95,341.87,286.36,336.53z"/>
				</defs>
				<clipPath id="SVGID_26_">
					<use xlink:href="#SVGID_25_"  style="overflow:visible;"/>
				</clipPath>
				<g class="st32">
					<path class="st22" d="M286.36,336.53l8.62,4.8c0.25,0.14,0.5,0.28,0.75,0.43l-8.62-4.8
						C286.86,336.81,286.61,336.67,286.36,336.53"/>
					<path class="st22" d="M287.11,336.96l8.62,4.8c1.38,0.81,2.71,1.72,3.97,2.71l-8.62-4.8
						C289.82,338.67,288.49,337.77,287.11,336.96"/>
					<path class="st22" d="M291.08,339.66l8.62,4.8c1.57,1.23,3.04,2.59,4.4,4.07l-8.62-4.8
						C294.12,342.26,292.65,340.89,291.08,339.66"/>
					<path class="st22" d="M295.48,343.73l8.62,4.8c4.79,5.24,8.1,11.94,9.16,19.55l-8.62-4.8
						C303.57,355.68,300.27,348.97,295.48,343.73"/>
				</g>
			</g>
			<g class="st0">
				<defs>
					<path id="SVGID_27_" class="st0" d="M388.27,205.6l8.62,4.8c11.4,6.35,19.77,17.78,21.73,31.78l-8.62-4.8
						C408.04,223.38,399.67,211.95,388.27,205.6z"/>
				</defs>
				<clipPath id="SVGID_28_">
					<use xlink:href="#SVGID_27_"  style="overflow:visible;"/>
				</clipPath>
				<g class="st33">
					<path class="st22" d="M388.27,205.6l8.62,4.8c0.3,0.17,0.6,0.34,0.89,0.51l-8.62-4.8C388.87,205.93,388.57,205.76,388.27,205.6
						"/>
					<path class="st22" d="M389.17,206.11l8.62,4.8c1.65,0.97,3.22,2.05,4.73,3.22l-8.62-4.8
						C392.39,208.15,390.81,207.08,389.17,206.11"/>
					<path class="st22" d="M393.89,209.33l8.62,4.8c1.87,1.47,3.62,3.09,5.23,4.84l-8.62-4.8
						C397.51,212.42,395.76,210.79,393.89,209.33"/>
					<path class="st22" d="M399.12,214.17l8.62,4.8c5.69,6.22,9.61,14.18,10.88,23.2l-8.62-4.8
						C408.74,228.35,404.81,220.39,399.12,214.17"/>
				</g>
			</g>
			<g>
				<polygon class="st22" points="397.92,265.3 406.54,270.11 186.72,305.1 178.1,300.29 				"/>
			</g>
			<g class="st0">
				<defs>
					<path id="SVGID_29_" class="st0" d="M350.14,364.46l8.62,4.8c2.05,1.14,3.56,3.21,3.92,5.75l-8.62-4.8
						C353.7,367.67,352.19,365.6,350.14,364.46z"/>
				</defs>
				<clipPath id="SVGID_30_">
					<use xlink:href="#SVGID_29_"  style="overflow:visible;"/>
				</clipPath>
				<g class="st34">
					<path class="st22" d="M350.14,364.46l8.62,4.8c0.05,0.03,0.11,0.06,0.16,0.09l-8.62-4.8
						C350.25,364.52,350.19,364.49,350.14,364.46"/>
					<path class="st22" d="M350.3,364.55l8.62,4.8c0.29,0.17,0.58,0.37,0.85,0.58l-8.62-4.8
						C350.88,364.91,350.59,364.72,350.3,364.55"/>
					<path class="st22" d="M351.14,365.13l8.62,4.8c0.34,0.26,0.65,0.55,0.94,0.87l-8.62-4.8
						C351.8,365.68,351.48,365.39,351.14,365.13"/>
					<path class="st22" d="M352.09,366l8.62,4.8c1.03,1.13,1.74,2.57,1.97,4.21l-8.62-4.8C353.83,368.57,353.12,367.12,352.09,366"
						/>
				</g>
			</g>
			<g>
				<polygon class="st22" points="304.63,363.29 313.25,368.09 326.38,462.17 317.76,457.37 				"/>
			</g>
			<g>
				<polygon class="st22" points="354.05,370.21 362.68,375.01 373.78,454.63 365.16,449.82 				"/>
			</g>
			<g class="st0">
				<defs>
					<path id="SVGID_31_" class="st0" d="M389.72,408.54l8.62,4.8c2.05,1.14,3.56,3.21,3.91,5.75l-8.62-4.8
						C393.28,411.75,391.77,409.68,389.72,408.54z"/>
				</defs>
				<clipPath id="SVGID_32_">
					<use xlink:href="#SVGID_31_"  style="overflow:visible;"/>
				</clipPath>
				<g class="st35">
					<path class="st22" d="M389.72,408.54l8.62,4.8c0.05,0.03,0.11,0.06,0.16,0.09l-8.62-4.8
						C389.83,408.6,389.77,408.57,389.72,408.54"/>
					<path class="st22" d="M389.88,408.63l8.62,4.8c0.29,0.17,0.58,0.37,0.84,0.58l-8.62-4.8C390.45,409,390.17,408.8,389.88,408.63
						"/>
					<path class="st22" d="M390.72,409.21l8.62,4.8c0.34,0.26,0.65,0.55,0.94,0.87l-8.62-4.8
						C391.37,409.76,391.06,409.47,390.72,409.21"/>
					<path class="st22" d="M391.66,410.07l8.62,4.8c1.03,1.13,1.74,2.57,1.97,4.22l-8.62-4.8
						C393.4,412.65,392.69,411.2,391.66,410.07"/>
				</g>
			</g>
			<g>
				<polygon class="st22" points="393.63,414.29 402.25,419.1 406.48,449.42 397.86,444.62 				"/>
			</g>
			<g>
				<polygon class="st22" points="432.4,455.22 441.02,460.02 205.57,497.49 196.95,492.69 				"/>
			</g>
			<g>
				<polygon class="st22" points="410,237.38 418.62,242.18 447.73,450.9 439.11,446.1 				"/>
			</g>
			<g>
				<path class="st22" d="M410,237.38l29.11,208.72c0.61,4.35-2.4,8.43-6.71,9.12l-235.45,37.47c-4.31,0.68-8.3-2.28-8.91-6.63
					l-29.12-208.71c-3.36-24.06,13.48-46.75,37.51-50.57l51.29-8.17l-2.1-15.07c-2.34-16.7-10.3-42.63-20.49-57.8
					c-3.99-5.95-6.53-12.62-7.54-19.82c-1.81-12.97,1.64-25.91,9.69-36.42c7.73-10.1,18.73-16.67,31.13-18.64
					c0.64-0.1,1.28-0.19,1.93-0.27c24.26-2.89,46.98,13.55,51.73,37.43c1.68,8.39,1.09,17.1-1.68,25.19
					c-5.56,16.22-5.95,42.75-3.47,60.58l2.11,15.08l51.29-8.16C384.37,196.88,406.63,213.33,410,237.38z M174.55,274.85l1.34,9.69
					l219.83-34.98l-1.35-9.7c-2.15-15.37-16.43-25.88-31.85-23.44l-59.12,9.41c-4.31,0.68-8.3-2.29-8.91-6.63l-3.2-22.95
					c-2.67-19.11-2.49-48.56,4.19-68.05c1.84-5.38,2.22-11.2,1.11-16.8c-3.17-15.96-18.41-26.93-34.68-25
					c-0.42,0.05-0.83,0.11-1.24,0.17c-8.36,1.32-15.79,5.73-21,12.53c-5.38,7.02-7.68,15.66-6.47,24.31
					c0.67,4.81,2.36,9.25,5.02,13.21c11.62,17.31,20.37,45.51,23.01,64.41l3.2,22.95c0.6,4.35-2.4,8.43-6.71,9.11l-59.1,9.41
					C183.21,244.96,172.4,259.47,174.55,274.85 M397.86,444.62l24.54-3.9L397.92,265.3L178.1,300.29l9.93,71.16
					c5.36-5.14,12.25-8.75,20.06-9.99c8.36-1.32,16.42,0.26,23.23,3.99c1.91-16.41,14.6-30.35,31.59-33.05
					c20.21-3.2,38.91,10.65,41.73,30.88l13.13,94.08l31.78-5.06l-11.11-79.6c-0.6-4.35,2.4-8.43,6.72-9.12
					c4.31-0.68,8.3,2.28,8.91,6.63l11.11,79.61l17.07-2.72L378,416.77c-0.6-4.35,2.4-8.43,6.71-9.11c4.33-0.69,8.31,2.28,8.91,6.63
					L397.86,444.62 M202.57,475.69l99.57-15.84l-13.13-94.08c-1.61-11.55-12.34-19.45-23.9-17.62
					c-11.59,1.84-19.69,12.75-18.08,24.31l2.78,19.89c0.61,4.34-2.4,8.43-6.71,9.11c-4.32,0.68-8.3-2.28-8.91-6.63
					c-1.61-11.55-12.34-19.45-23.9-17.62c-11.59,1.84-19.69,12.75-18.08,24.31L202.57,475.69"/>
			</g>
			<g class="st0">
				<defs>
					<path id="SVGID_33_" class="st0" d="M439.11,446.1l8.62,4.8c0.61,4.35-2.4,8.43-6.71,9.12l-8.62-4.8
						C436.71,454.53,439.72,450.45,439.11,446.1z"/>
				</defs>
				<clipPath id="SVGID_34_">
					<use xlink:href="#SVGID_33_"  style="overflow:visible;"/>
				</clipPath>
				<g class="st36">
					<path class="st22" d="M439.11,446.1l8.62,4.8c0.01,0.05,0.01,0.11,0.02,0.16l-8.62-4.8
						C439.13,446.2,439.12,446.15,439.11,446.1"/>
					<path class="st22" d="M439.13,446.26l8.62,4.8c0.05,0.44,0.07,0.87,0.05,1.29l-8.62-4.8
						C439.2,447.12,439.18,446.69,439.13,446.26"/>
					<path class="st22" d="M439.18,447.55l8.62,4.8c-0.01,0.34-0.05,0.69-0.11,1.02l-8.62-4.8
						C439.13,448.24,439.17,447.89,439.18,447.55"/>
					<path class="st22" d="M439.08,448.57l8.62,4.8c-0.05,0.31-0.12,0.61-0.21,0.91l-8.62-4.8
						C438.95,449.18,439.02,448.88,439.08,448.57"/>
					<path class="st22" d="M438.87,449.48l8.62,4.8c-0.09,0.29-0.19,0.58-0.3,0.85l-8.62-4.8
						C438.68,450.05,438.78,449.77,438.87,449.48"/>
					<path class="st22" d="M438.56,450.33l8.62,4.8c-0.12,0.29-0.26,0.57-0.41,0.84l-8.62-4.8
						C438.31,450.9,438.44,450.62,438.56,450.33"/>
					<path class="st22" d="M438.16,451.17l8.62,4.8c-0.17,0.3-0.35,0.58-0.55,0.85l-8.62-4.8
						C437.81,451.75,437.99,451.46,438.16,451.17"/>
					<path class="st22" d="M437.61,452.02l8.62,4.8c-0.24,0.33-0.51,0.64-0.8,0.93l-8.62-4.8
						C437.1,452.66,437.36,452.35,437.61,452.02"/>
					<path class="st22" d="M436.81,452.95l8.62,4.8c-1.16,1.16-2.68,1.98-4.41,2.26l-8.62-4.8
						C434.13,454.94,435.65,454.12,436.81,452.95"/>
				</g>
			</g>
		</g>
	</g>
</g>
<path class="st37" d="M222.96,492.98l-16.21,24.85c0,0-8.03,11.48-1.73,21.28s15,10.55,15,10.55s15.15,1.7,22.13-11.4
	C249.13,525.15,222.96,492.98,222.96,492.98z"/>
<g class="st38">
	<g class="st39">
		<g>
			<path class="st22" d="M228.68,497.02c-1.43-2.11-2.7-4.04-3.87-5.81c-0.17-0.25-0.42-0.51-0.67-0.67
				c-1.01-0.67-2.36-0.34-3.03,0.67c-1.09,1.77-2.36,3.62-3.87,5.81c-6.65,9.77-16.59,24.51-16.59,32.93
				c0,6.15,2.53,11.71,6.57,15.75c4.04,3.96,9.6,6.48,15.75,6.48c6.15,0,11.71-2.53,15.75-6.57s6.57-9.6,6.57-15.75
				C245.27,521.45,235.34,506.79,228.68,497.02z M235.67,542.59c-3.28,3.28-7.75,5.22-12.72,5.22s-9.43-2.02-12.72-5.22
				c-3.28-3.28-5.22-7.75-5.22-12.72c0-7.07,9.52-21.14,15.83-30.49c0.76-1.09,1.43-2.19,2.11-3.12c0.67,0.93,1.35,2.02,2.11,3.12
				c6.32,9.43,15.83,23.41,15.83,30.49C240.89,534.84,238.87,539.3,235.67,542.59z"/>
		</g>
	</g>
	<g class="st39">
		<g>
			<path class="st22" d="M236.01,528.35c-1.18-0.08-2.19,0.84-2.27,2.02c-0.08,1.85-0.67,3.62-1.6,5.14
				c-0.93,1.52-2.27,2.86-3.87,3.71c-1.01,0.59-1.43,1.94-0.84,2.95c0.67,1.18,2.02,1.52,3.03,0.93c2.27-1.26,4.13-3.12,5.39-5.22
				c1.35-2.11,2.11-4.63,2.19-7.24C238.12,529.45,237.19,528.44,236.01,528.35z"/>
		</g>
	</g>
	<g class="st39">
	</g>
	<g class="st39">
	</g>
	<g class="st39">
	</g>
	<g class="st39">
	</g>
	<g class="st39">
	</g>
	<g class="st39">
	</g>
	<g class="st39">
	</g>
	<g class="st39">
	</g>
	<g class="st39">
	</g>
	<g class="st39">
	</g>
	<g class="st39">
	</g>
	<g class="st39">
	</g>
	<g class="st39">
	</g>
	<g class="st39">
	</g>
	<g class="st39">
	</g>
</g>
<g>
	<g>
		<g class="st0">
			<g class="st0">
				<defs>
					<path id="SVGID_35_" class="st0" d="M234.08,577.02l-8.62-4.8c-0.45-0.25-0.87-0.53-1.28-0.85c-2.42-1.9-3.89-4.76-4.42-8.61
						c-0.53-3.79,0.11-7,1.89-9.64c1.8-2.64,4.57-4.25,8.33-4.85l8.62,4.8c-3.76,0.6-6.53,2.21-8.33,4.85
						c-1.79,2.64-2.42,5.85-1.89,9.64c0.53,3.84,2.01,6.71,4.42,8.61C233.21,576.49,233.64,576.77,234.08,577.02z"/>
				</defs>
				<clipPath id="SVGID_36_">
					<use xlink:href="#SVGID_35_"  style="overflow:visible;"/>
				</clipPath>
				<g class="st40">
					<path class="st41" d="M229.98,548.27l8.62,4.8c-2.97,0.47-5.33,1.58-7.07,3.33l-8.62-4.8
						C224.65,549.85,227,548.74,229.98,548.27"/>
					<path class="st42" d="M222.9,551.6l8.62,4.8c-0.37,0.37-0.71,0.77-1.02,1.19l-8.62-4.8
						C222.19,552.37,222.53,551.97,222.9,551.6"/>
					<path class="st43" d="M221.88,552.79l8.62,4.8c-0.08,0.11-0.15,0.21-0.23,0.32c-0.19,0.28-0.36,0.56-0.52,0.85l-8.62-4.8
						c0.16-0.29,0.34-0.57,0.52-0.85C221.72,553.01,221.8,552.9,221.88,552.79"/>
					<path class="st44" d="M221.13,553.97l8.62,4.8c-0.22,0.39-0.41,0.78-0.58,1.19l-8.62-4.8
						C220.72,554.75,220.91,554.35,221.13,553.97"/>
					<path class="st45" d="M220.55,555.16l8.62,4.8c-0.17,0.41-0.32,0.82-0.44,1.25l-8.62-4.8
						C220.23,555.98,220.38,555.57,220.55,555.16"/>
					<path class="st46" d="M220.1,556.41l8.62,4.8c-0.13,0.46-0.24,0.93-0.33,1.42l-8.62-4.8
						C219.86,557.34,219.97,556.87,220.1,556.41"/>
					<path class="st47" d="M219.78,557.83l8.62,4.8c-0.1,0.58-0.16,1.18-0.19,1.79l-8.62-4.8
						C219.62,559.01,219.68,558.41,219.78,557.83"/>
					<path class="st48" d="M219.59,559.62l8.62,4.8c-0.04,0.88,0,1.8,0.12,2.76l-8.62-4.8C219.59,561.42,219.55,560.5,219.59,559.62
						"/>
					<path class="st49" d="M219.71,562.38l8.62,4.8c0.02,0.13,0.03,0.25,0.05,0.38c0.43,3.13,1.5,5.62,3.18,7.46l-8.62-4.8
						c-1.69-1.84-2.75-4.32-3.18-7.46C219.74,562.63,219.72,562.51,219.71,562.38"/>
					<path class="st48" d="M222.94,570.22l8.62,4.8c0.38,0.42,0.8,0.8,1.24,1.15c0,0,0.01,0.01,0.01,0.01l-8.62-4.8
						c0,0-0.01-0.01-0.01-0.01C223.73,571.02,223.32,570.63,222.94,570.22"/>
					<path class="st47" d="M224.19,571.38l8.62,4.8c0.34,0.27,0.7,0.51,1.07,0.73l-8.62-4.8
						C224.89,571.89,224.54,571.64,224.19,571.38"/>
					<path class="st46" d="M225.26,572.1l8.62,4.8c0.07,0.04,0.13,0.08,0.2,0.11l-8.62-4.8C225.4,572.18,225.33,572.14,225.26,572.1
						"/>
				</g>
			</g>
			<g class="st0">
				<defs>
					<path id="SVGID_37_" class="st0" d="M223.74,594.56l-8.62-4.8c3.36,1.87,6.86,3.07,10.51,3.61c3.87,0.56,7.4,0.59,10.61,0.08
						l8.62,4.8c-3.2,0.51-6.73,0.48-10.61-0.08C230.6,597.62,227.1,596.43,223.74,594.56z"/>
				</defs>
				<clipPath id="SVGID_38_">
					<use xlink:href="#SVGID_37_"  style="overflow:visible;"/>
				</clipPath>
				<g class="st50">
					<path class="st41" d="M236.24,593.44l8.62,4.8c-3.2,0.51-6.73,0.48-10.61-0.08c-3.65-0.54-7.16-1.74-10.51-3.61l-8.62-4.8
						c3.36,1.87,6.86,3.07,10.51,3.61C229.51,593.92,233.04,593.95,236.24,593.44"/>
				</g>
			</g>
			<g>
				<polygon class="st51" points="297.42,537.59 306.04,542.39 238.6,553.08 229.98,548.27 				"/>
			</g>
			<g>
				<polygon class="st52" points="294.65,517.62 303.27,522.42 306.04,542.39 297.42,537.59 				"/>
			</g>
			<g>
				<polygon class="st51" points="281.82,586.22 290.44,591.03 244.86,598.25 236.24,593.44 				"/>
			</g>
			<g class="st0">
				<defs>
					<path id="SVGID_39_" class="st0" d="M289.73,587.43l8.62,4.8c-0.85-0.47-1.78-0.83-2.79-1.08c-1.59-0.37-3.3-0.42-5.12-0.13
						l-8.62-4.8c1.83-0.29,3.54-0.24,5.12,0.13C287.95,586.6,288.88,586.95,289.73,587.43z"/>
				</defs>
				<clipPath id="SVGID_40_">
					<use xlink:href="#SVGID_39_"  style="overflow:visible;"/>
				</clipPath>
				<g class="st53">
					<path class="st41" d="M289.73,587.43l8.62,4.8c-0.85-0.47-1.78-0.83-2.79-1.08c-1.59-0.37-3.3-0.42-5.12-0.13l-8.62-4.8
						c1.83-0.29,3.54-0.24,5.12,0.13C287.95,586.6,288.88,586.95,289.73,587.43"/>
				</g>
			</g>
			<g>
				<polygon class="st51" points="288.07,631.24 296.69,636.05 220.24,648.15 211.62,643.35 				"/>
			</g>
			<g class="st0">
				<defs>
					<path id="SVGID_41_" class="st0" d="M300.38,570.15l8.62,4.8c0.17,0.09,0.34,0.19,0.51,0.29c2.37,1.38,4.55,3.14,6.54,5.29
						c1.98,2.15,3.68,4.71,5.08,7.68c1.39,2.97,2.37,6.43,2.92,10.37c0.55,3.94,0.54,7.57-0.02,10.87
						c-0.55,3.31-1.48,6.29-2.77,8.96c-1.29,2.66-2.91,5.01-4.86,7.05s-4.02,3.77-6.2,5.22c-2.2,1.44-4.46,2.61-6.8,3.51
						c-2.34,0.9-4.58,1.51-6.72,1.85l-8.62-4.8c2.13-0.34,4.37-0.95,6.72-1.85c2.34-0.9,4.6-2.07,6.8-3.51
						c2.19-1.45,4.25-3.19,6.2-5.22c1.95-2.04,3.57-4.38,4.86-7.05c1.29-2.66,2.21-5.65,2.77-8.96c0.55-3.31,0.56-6.94,0.02-10.87
						c-0.55-3.95-1.53-7.4-2.92-10.37c-1.4-2.97-3.1-5.53-5.08-7.68c-1.99-2.14-4.17-3.91-6.54-5.29
						C300.72,570.34,300.55,570.25,300.38,570.15z"/>
				</defs>
				<clipPath id="SVGID_42_">
					<use xlink:href="#SVGID_41_"  style="overflow:visible;"/>
				</clipPath>
				<g class="st54">
					<path class="st46" d="M300.38,570.15l8.62,4.8c0.17,0.09,0.34,0.19,0.51,0.29c0.05,0.03,0.1,0.06,0.15,0.09l-8.62-4.8
						c-0.05-0.03-0.1-0.06-0.15-0.09C300.72,570.34,300.55,570.25,300.38,570.15"/>
					<path class="st47" d="M301.04,570.53l8.62,4.8c1,0.59,1.97,1.25,2.9,1.98l-8.62-4.8C303.01,571.78,302.04,571.12,301.04,570.53
						"/>
					<path class="st48" d="M303.94,572.51l8.62,4.8c1.22,0.96,2.39,2.03,3.49,3.22c0.03,0.03,0.06,0.06,0.08,0.09l-8.62-4.8
						c-0.03-0.03-0.06-0.06-0.08-0.09C306.32,574.54,305.16,573.46,303.94,572.51"/>
					<path class="st49" d="M307.52,575.82l8.62,4.8c1.94,2.13,3.61,4.66,4.99,7.59c1.39,2.97,2.37,6.43,2.92,10.37
						c0.04,0.3,0.08,0.59,0.11,0.88l-8.62-4.8c-0.03-0.29-0.07-0.59-0.11-0.88c-0.55-3.95-1.53-7.4-2.92-10.37
						C311.13,580.48,309.46,577.95,307.52,575.82"/>
					<path class="st48" d="M315.54,594.66l8.62,4.8c0.26,2.15,0.34,4.21,0.26,6.17l-8.62-4.8
						C315.89,598.87,315.8,596.81,315.54,594.66"/>
					<path class="st47" d="M315.8,600.83l8.62,4.8c-0.05,1.32-0.19,2.59-0.39,3.82c-0.01,0.04-0.01,0.08-0.02,0.12l-8.62-4.8
						c0.01-0.04,0.01-0.08,0.02-0.12C315.62,603.42,315.75,602.15,315.8,600.83"/>
					<path class="st46" d="M315.39,604.77l8.62,4.8c-0.25,1.43-0.56,2.81-0.94,4.12l-8.62-4.8
						C314.83,607.58,315.15,606.21,315.39,604.77"/>
					<path class="st45" d="M314.45,608.89l8.62,4.8c-0.33,1.14-0.72,2.24-1.16,3.29l-8.62-4.8
						C313.73,611.13,314.12,610.03,314.45,608.89"/>
					<path class="st44" d="M313.29,612.18l8.62,4.8c-0.2,0.49-0.42,0.97-0.65,1.43c-0.25,0.52-0.52,1.03-0.8,1.53l-8.62-4.8
						c0.28-0.5,0.54-1.01,0.8-1.53C312.87,613.14,313.09,612.67,313.29,612.18"/>
					<path class="st43" d="M311.85,615.14l8.62,4.8c-0.56,1.01-1.18,1.97-1.85,2.87l-8.62-4.8
						C310.67,617.11,311.28,616.15,311.85,615.14"/>
					<path class="st42" d="M310,618.02l8.62,4.8c-0.68,0.93-1.42,1.81-2.22,2.64c-0.19,0.2-0.38,0.39-0.56,0.58l-8.62-4.8
						c0.19-0.19,0.38-0.38,0.56-0.58C308.58,619.83,309.31,618.95,310,618.02"/>
					<path class="st41" d="M307.22,621.24l8.62,4.8c-1.78,1.79-3.66,3.34-5.64,4.65c-2.2,1.44-4.46,2.61-6.8,3.51
						c-2.34,0.9-4.58,1.51-6.72,1.85l-8.62-4.8c2.13-0.34,4.37-0.95,6.72-1.85c2.34-0.9,4.6-2.07,6.8-3.51
						C303.56,624.57,305.43,623.02,307.22,621.24"/>
				</g>
			</g>
			<g>
				<path class="st55" d="M294.65,517.62l2.77,19.97l-67.45,10.68c-3.76,0.6-6.53,2.21-8.33,4.85c-1.79,2.64-2.42,5.85-1.89,9.64
					c0.53,3.84,2.01,6.71,4.42,8.61c2.43,1.9,5.51,2.55,9.27,1.95l45.58-7.22c2.29-0.31,4.6-0.38,7.06-0.21
					c2.46,0.15,4.96,0.61,7.48,1.37c2.52,0.75,4.96,1.82,7.33,3.19c2.37,1.38,4.55,3.14,6.54,5.29c1.98,2.15,3.68,4.71,5.08,7.68
					c1.39,2.97,2.37,6.43,2.92,10.37c0.55,3.94,0.54,7.57-0.02,10.87c-0.55,3.31-1.48,6.29-2.77,8.96
					c-1.29,2.66-2.91,5.01-4.86,7.05c-1.95,2.04-4.02,3.77-6.2,5.22c-2.2,1.44-4.46,2.61-6.8,3.51c-2.34,0.9-4.58,1.51-6.72,1.85
					l-76.45,12.11l-2.77-19.97l76.45-12.11c3.81-0.6,6.61-2.2,8.41-4.79c1.79-2.59,2.44-5.78,1.91-9.56
					c-0.26-1.85-0.77-3.5-1.55-4.94c-0.78-1.45-1.76-2.65-2.95-3.62c-1.2-0.96-2.59-1.62-4.17-2.01c-1.59-0.37-3.3-0.42-5.12-0.13
					l-45.58,7.22c-3.2,0.51-6.73,0.48-10.61-0.08c-3.87-0.57-7.56-1.88-11.1-3.94c-3.52-2.06-6.63-4.99-9.32-8.81
					c-2.68-3.82-4.44-8.71-5.27-14.71c-0.83-5.99-0.48-11.21,1.06-15.67c1.54-4.46,3.72-8.23,6.53-11.32c2.82-3.09,6-5.51,9.55-7.25
					c3.55-1.74,6.92-2.86,10.13-3.37L294.65,517.62z"/>
			</g>
		</g>
		<g class="st0">
			<g>
				<polygon class="st56" points="329.87,512.04 338.49,516.84 387.91,590.11 379.29,585.31 				"/>
			</g>
			<g>
				<polygon class="st57" points="428.94,496.35 437.56,501.15 400.55,615.59 391.93,610.79 				"/>
			</g>
			<g class="st0">
				<defs>
					<path id="SVGID_43_" class="st0" d="M385.96,621.29l-8.62-4.8c0.32,0.18,0.66,0.34,1,0.49c1.74,0.75,3.54,0.97,5.43,0.67
						c1.93-0.31,3.63-1.08,5.09-2.33c1.46-1.25,2.49-2.76,3.07-4.53l8.62,4.8c-0.58,1.77-1.61,3.28-3.07,4.53
						c-1.46,1.25-3.16,2.03-5.09,2.33c-1.89,0.3-3.69,0.08-5.43-0.67C386.62,621.63,386.28,621.47,385.96,621.29z"/>
				</defs>
				<clipPath id="SVGID_44_">
					<use xlink:href="#SVGID_43_"  style="overflow:visible;"/>
				</clipPath>
				<g class="st58">
					<path class="st45" d="M391.93,610.79l8.62,4.8c-0.08,0.25-0.17,0.5-0.27,0.74l-8.62-4.8
						C391.76,611.28,391.85,611.04,391.93,610.79"/>
					<path class="st44" d="M391.66,611.52l8.62,4.8c-0.14,0.34-0.31,0.68-0.49,1l-8.62-4.8
						C391.35,612.2,391.51,611.87,391.66,611.52"/>
					<path class="st43" d="M391.17,612.53l8.62,4.8c-0.2,0.35-0.42,0.69-0.66,1.02l-8.62-4.8
						C390.75,613.22,390.97,612.88,391.17,612.53"/>
					<path class="st42" d="M390.51,613.55l8.62,4.8c-0.3,0.41-0.64,0.8-1.01,1.18l-8.62-4.8
						C389.87,614.35,390.21,613.96,390.51,613.55"/>
					<path class="st41" d="M389.5,614.72l8.62,4.8c-0.2,0.2-0.41,0.4-0.64,0.59c-1.46,1.25-3.16,2.03-5.09,2.33
						c-1.89,0.3-3.69,0.08-5.43-0.67c-0.35-0.15-0.68-0.31-1-0.49l-8.62-4.8c0.32,0.18,0.66,0.34,1,0.49
						c1.74,0.75,3.54,0.97,5.43,0.67c1.93-0.31,3.63-1.08,5.09-2.33C389.08,615.12,389.3,614.93,389.5,614.72"/>
				</g>
			</g>
			<g>
				<path class="st55" d="M428.94,496.35l-37.01,114.44c-0.58,1.77-1.61,3.28-3.07,4.53c-1.46,1.25-3.16,2.03-5.09,2.33
					c-1.89,0.3-3.69,0.08-5.43-0.67c-1.74-0.75-3.16-1.87-4.25-3.37l-66.41-98.06l22.18-3.51l49.42,73.27l27.55-85.46L428.94,496.35
					z"/>
			</g>
		</g>
	</g>
</g>
<g>
	<g>
		<g class="st0">
			<g class="st0">
				<defs>
					<path id="SVGID_45_" class="st0" d="M209.44,562.46l-8.62-4.8c1.62,0.9,3.19,1.28,3.36,1.32l8.62,4.8
						C212.63,563.74,211.06,563.36,209.44,562.46z"/>
				</defs>
				<clipPath id="SVGID_46_">
					<use xlink:href="#SVGID_45_"  style="overflow:visible;"/>
				</clipPath>
				<g class="st59">
					<path class="st60" d="M204.18,558.97l8.62,4.8c-0.17-0.04-1.74-0.42-3.36-1.32l-8.62-4.8
						C202.44,558.56,204.01,558.93,204.18,558.97"/>
				</g>
			</g>
			<g>
				<polygon class="st61" points="210.95,549.01 219.57,553.82 212.8,563.78 204.18,558.97 				"/>
			</g>
			<g class="st0">
				<defs>
					<path id="SVGID_47_" class="st0" d="M221.87,538.06l8.62,4.8c-1.4-0.78-2.63-1-3.72-0.83c-5.48,0.87-7.11,11.24-7.2,11.78
						l-8.62-4.8c0.09-0.55,1.72-10.92,7.2-11.78C219.24,537.06,220.47,537.28,221.87,538.06z"/>
				</defs>
				<clipPath id="SVGID_48_">
					<use xlink:href="#SVGID_47_"  style="overflow:visible;"/>
				</clipPath>
				<g class="st62">
					<path class="st60" d="M221.87,538.06l8.62,4.8c-1.4-0.78-2.63-1-3.72-0.83c-1.14,0.18-2.12,0.77-2.95,1.6l-8.62-4.8
						c0.83-0.83,1.8-1.42,2.95-1.6C219.24,537.06,220.47,537.28,221.87,538.06"/>
					<path class="st63" d="M215.2,538.83l8.62,4.8c-0.31,0.31-0.6,0.65-0.87,1.02l-8.62-4.8
						C214.6,539.49,214.89,539.14,215.2,538.83"/>
					<path class="st64" d="M214.33,539.85l8.62,4.8c-0.3,0.41-0.57,0.84-0.82,1.29l-8.62-4.8
						C213.76,540.69,214.04,540.26,214.33,539.85"/>
					<path class="st65" d="M213.51,541.15l8.62,4.8c-0.32,0.57-0.6,1.18-0.86,1.78l-8.62-4.8
						C212.9,542.32,213.19,541.72,213.51,541.15"/>
					<path class="st66" d="M212.65,542.93l8.62,4.8c-0.37,0.89-0.67,1.78-0.91,2.59l-8.62-4.8
						C211.98,544.7,212.28,543.81,212.65,542.93"/>
					<path class="st15" d="M211.75,545.52l8.62,4.8c-0.44,1.49-0.67,2.74-0.76,3.26l-8.62-4.8
						C211.08,548.26,211.31,547.01,211.75,545.52"/>
					<path class="st16" d="M210.99,548.78l8.62,4.8c-0.02,0.12-0.03,0.2-0.04,0.23l-8.62-4.8
						C210.95,548.98,210.97,548.9,210.99,548.78"/>
				</g>
			</g>
			<g class="st0">
				<defs>
					<path id="SVGID_49_" class="st0" d="M232.84,544.39l-8.62-4.8c1.98,1.1,4.08,1.33,6.15,1c7.67-1.22,14.65-9.59,15.01-10.03
						l8.62,4.8c-0.37,0.44-7.34,8.81-15.01,10.03C236.92,545.72,234.82,545.49,232.84,544.39z"/>
				</defs>
				<clipPath id="SVGID_50_">
					<use xlink:href="#SVGID_49_"  style="overflow:visible;"/>
				</clipPath>
				<g class="st67">
					<path class="st63" d="M245.38,530.56l8.62,4.8c-0.11,0.14-0.86,1.03-2.07,2.24l-8.62-4.8
						C244.52,531.59,245.27,530.7,245.38,530.56"/>
					<path class="st60" d="M243.32,532.8l8.62,4.8c-2.69,2.7-7.65,6.95-12.95,7.78c-2.07,0.33-4.17,0.1-6.15-1l-8.62-4.8
						c1.98,1.1,4.08,1.33,6.15,1C235.66,539.75,240.63,535.5,243.32,532.8"/>
				</g>
			</g>
			<g class="st0">
				<defs>
					<path id="SVGID_51_" class="st0" d="M261.55,532.11l8.62,4.8c-7.69-3.75-11.74-4.5-13.87-4.16c-2.71,0.43-2.32,2.51-2.3,2.62
						l-8.62-4.8c-0.02-0.11-0.41-2.19,2.3-2.62C249.81,527.61,253.86,528.35,261.55,532.11z"/>
				</defs>
				<clipPath id="SVGID_52_">
					<use xlink:href="#SVGID_51_"  style="overflow:visible;"/>
				</clipPath>
				<g class="st68">
					<path class="st60" d="M261.55,532.11l8.62,4.8c-7.69-3.75-11.74-4.5-13.87-4.16c-0.85,0.13-1.39,0.43-1.74,0.78l-8.62-4.8
						c0.35-0.35,0.89-0.64,1.74-0.78C249.81,527.61,253.86,528.35,261.55,532.11"/>
					<path class="st63" d="M245.94,528.72l8.62,4.8c-0.07,0.07-0.14,0.15-0.2,0.23l-8.62-4.8
						C245.8,528.87,245.87,528.79,245.94,528.72"/>
					<path class="st64" d="M245.75,528.95l8.62,4.8c-0.05,0.07-0.09,0.14-0.13,0.2l-8.62-4.8
						C245.65,529.08,245.7,529.01,245.75,528.95"/>
					<path class="st65" d="M245.61,529.15l8.62,4.8c-0.04,0.07-0.07,0.13-0.1,0.2l-8.62-4.8
						C245.54,529.29,245.58,529.22,245.61,529.15"/>
					<path class="st66" d="M245.52,529.35l8.62,4.8c-0.03,0.07-0.06,0.14-0.08,0.22l-8.62-4.8
						C245.46,529.5,245.49,529.43,245.52,529.35"/>
					<path class="st15" d="M245.44,529.57l8.62,4.8c-0.02,0.08-0.04,0.17-0.06,0.24l-8.62-4.8
						C245.4,529.73,245.42,529.65,245.44,529.57"/>
					<path class="st16" d="M245.38,529.81l8.62,4.8c-0.02,0.1-0.03,0.2-0.03,0.29l-8.62-4.8
						C245.36,530.01,245.37,529.92,245.38,529.81"/>
					<path class="st69" d="M245.35,530.1l8.62,4.8c-0.01,0.15,0,0.27,0.01,0.36l-8.62-4.8C245.36,530.38,245.35,530.25,245.35,530.1
						"/>
					<path class="st70" d="M245.37,530.46l8.62,4.8c0.01,0.05,0.01,0.09,0.02,0.1l-8.62-4.8
						C245.38,530.55,245.37,530.51,245.37,530.46"/>
				</g>
			</g>
			<g class="st0">
				<defs>
					<path id="SVGID_53_" class="st0" d="M294.9,515.65l8.62,4.8c-0.23,0.04-4.64,0.74-12.32,9.02c-4.18,4.51-10.03,6.31-14.51,7.02
						c-3.74,0.59-6.38,0.43-6.52,0.42l-8.62-4.8c0.14,0.01,2.77,0.17,6.52-0.42c4.47-0.71,10.33-2.51,14.51-7.02
						C290.25,516.38,294.67,515.68,294.9,515.65z"/>
				</defs>
				<clipPath id="SVGID_54_">
					<use xlink:href="#SVGID_53_"  style="overflow:visible;"/>
				</clipPath>
				<g class="st71">
					<path class="st60" d="M294.9,515.65l8.62,4.8c-0.22,0.03-4.02,0.64-10.7,7.33l-8.62-4.8
						C290.87,516.28,294.68,515.68,294.9,515.65"/>
					<path class="st63" d="M284.2,522.98l8.62,4.8c-0.52,0.53-1.07,1.09-1.63,1.7c-0.16,0.17-0.32,0.34-0.48,0.5l-8.62-4.8
						c0.16-0.16,0.32-0.33,0.48-0.5C283.13,524.07,283.68,523.5,284.2,522.98"/>
					<path class="st60" d="M282.1,525.17l8.62,4.8c-4.14,4.14-9.72,5.84-14.03,6.52c-3.74,0.59-6.38,0.43-6.52,0.42l-8.62-4.8
						c0.14,0.01,2.77,0.17,6.52-0.42C272.37,531.01,277.96,529.31,282.1,525.17"/>
				</g>
			</g>
			<g>
				<polygon class="st19" points="294.65,513.86 303.27,518.66 303.52,520.45 294.9,515.65 				"/>
			</g>
			<g>
				<path class="st20" d="M224.64,524.94c0.39-0.06,0.6-0.08,0.61-0.09l69.4-10.99l0.25,1.79c-0.23,0.04-4.64,0.74-12.32,9.02
					c-4.18,4.51-10.03,6.31-14.51,7.02c-3.74,0.59-6.38,0.43-6.52,0.42c-7.69-3.75-11.74-4.5-13.87-4.16
					c-2.71,0.43-2.32,2.51-2.3,2.62c-0.37,0.44-7.34,8.81-15.01,10.03c-2.46,0.39-4.95,0-7.25-1.72c-1.92-1.43-3.57-1.87-4.97-1.64
					c-5.48,0.87-7.11,11.24-7.2,11.78l-6.76,9.96c-0.39-0.09-7.72-1.85-7.09-7.42c0.63-5.57,6.28-13.94,6.58-14.38
					C210.51,527.7,221.89,525.37,224.64,524.94z"/>
			</g>
		</g>
	</g>
</g>
<g>
	<g>
		<g class="st0">
			<g class="st0">
				<defs>
					<path id="SVGID_55_" class="st0" d="M326.15,530.3l-8.62-4.8c1.4,0.78,2.82,1.2,4.14,0.99l8.62,4.8
						C328.97,531.5,327.56,531.09,326.15,530.3z"/>
				</defs>
				<clipPath id="SVGID_56_">
					<use xlink:href="#SVGID_55_"  style="overflow:visible;"/>
				</clipPath>
				<g class="st72">
					<path class="st60" d="M321.67,526.49l8.62,4.8c-1.32,0.21-2.73-0.21-4.14-0.99l-8.62-4.8
						C318.93,526.28,320.35,526.7,321.67,526.49"/>
				</g>
			</g>
			<g class="st0">
				<defs>
					<path id="SVGID_57_" class="st0" d="M324.42,526.77l8.62,4.8c-0.67-0.38-1.36-0.54-2.04-0.43c-0.09,0.01-0.19,0.04-0.28,0.06
						c-0.14,0.04-0.28,0.07-0.43,0.09l-8.62-4.8c0.14-0.02,0.29-0.05,0.43-0.09c0.09-0.03,0.19-0.05,0.28-0.06
						C323.06,526.23,323.74,526.39,324.42,526.77z"/>
				</defs>
				<clipPath id="SVGID_58_">
					<use xlink:href="#SVGID_57_"  style="overflow:visible;"/>
				</clipPath>
				<g class="st73">
					<path class="st60" d="M324.42,526.77l8.62,4.8c-0.67-0.38-1.36-0.54-2.04-0.43c-0.09,0.01-0.19,0.04-0.28,0.06
						c-0.14,0.04-0.28,0.07-0.43,0.09l-8.62-4.8c0.14-0.02,0.29-0.05,0.43-0.09c0.09-0.03,0.19-0.05,0.28-0.06
						C323.06,526.23,323.74,526.39,324.42,526.77"/>
				</g>
			</g>
			<g class="st0">
				<defs>
					<path id="SVGID_59_" class="st0" d="M334.57,511.07l8.62,4.8c-6.31,0.99-3.07,15.11-2.9,15.85l-8.62-4.8
						C331.5,526.18,328.25,512.07,334.57,511.07z"/>
				</defs>
				<clipPath id="SVGID_60_">
					<use xlink:href="#SVGID_59_"  style="overflow:visible;"/>
				</clipPath>
				<g class="st74">
					<path class="st60" d="M334.57,511.07l8.62,4.8c-0.82,0.13-1.48,0.48-2.01,0.99l-8.62-4.8
						C333.08,511.55,333.74,511.2,334.57,511.07"/>
					<path class="st63" d="M332.56,512.07l8.62,4.8c-0.16,0.15-0.3,0.32-0.44,0.51l-8.62-4.8
						C332.26,512.39,332.4,512.22,332.56,512.07"/>
					<path class="st64" d="M332.12,512.58l8.62,4.8c-0.12,0.17-0.23,0.34-0.34,0.53l-8.62-4.8
						C331.89,512.92,332,512.74,332.12,512.58"/>
					<path class="st65" d="M331.78,513.1l8.62,4.8c-0.11,0.2-0.21,0.41-0.31,0.64l-8.62-4.8
						C331.57,513.52,331.67,513.31,331.78,513.1"/>
					<path class="st66" d="M331.48,513.74l8.62,4.8c-0.11,0.27-0.21,0.55-0.29,0.84l-8.62-4.8
						C331.27,514.29,331.36,514.01,331.48,513.74"/>
					<path class="st15" d="M331.18,514.58l8.62,4.8c-0.11,0.38-0.2,0.78-0.27,1.2l-8.62-4.8
						C330.98,515.37,331.07,514.96,331.18,514.58"/>
					<path class="st16" d="M330.91,515.78l8.62,4.8c-0.11,0.67-0.18,1.37-0.21,2.09l-8.62-4.8
						C330.73,517.15,330.8,516.45,330.91,515.78"/>
					<path class="st69" d="M330.7,517.87l8.62,4.8c-0.07,1.61,0.05,3.28,0.23,4.75l-8.62-4.8
						C330.76,521.15,330.64,519.48,330.7,517.87"/>
					<path class="st70" d="M330.93,522.62l8.62,4.8c0.27,2.28,0.68,4.06,0.74,4.31l-8.62-4.8
						C331.61,526.68,331.2,524.9,330.93,522.62"/>
				</g>
			</g>
			<g class="st0">
				<defs>
					<path id="SVGID_61_" class="st0" d="M345.49,552.93l-8.62-4.8c0.17,0.09,0.32,0.14,0.46,0.12l8.62,4.8
						C345.81,553.07,345.65,553.03,345.49,552.93z"/>
				</defs>
				<clipPath id="SVGID_62_">
					<use xlink:href="#SVGID_61_"  style="overflow:visible;"/>
				</clipPath>
				<g class="st75">
					<path class="st60" d="M337.32,548.25l8.62,4.8c-0.13,0.02-0.29-0.02-0.46-0.12l-8.62-4.8
						C337.03,548.22,337.19,548.27,337.32,548.25"/>
				</g>
			</g>
			<g class="st0">
				<defs>
					<path id="SVGID_63_" class="st0" d="M331.67,526.93l8.62,4.8c6.22,16.92,6.66,21.16,5.65,21.32l-8.62-4.8
						C338.33,548.09,337.88,543.85,331.67,526.93z"/>
				</defs>
				<clipPath id="SVGID_64_">
					<use xlink:href="#SVGID_63_"  style="overflow:visible;"/>
				</clipPath>
				<g class="st76">
					<path class="st70" d="M331.67,526.93l8.62,4.8c4.11,11.18,5.7,16.82,6.01,19.41l-8.62-4.8
						C337.36,543.75,335.78,538.11,331.67,526.93"/>
					<path class="st69" d="M337.68,546.34l8.62,4.8c0.05,0.41,0.07,0.74,0.06,1.01l-8.62-4.8
						C337.75,547.08,337.73,546.75,337.68,546.34"/>
					<path class="st16" d="M337.74,547.35l8.62,4.8c0,0.12-0.01,0.23-0.03,0.33l-8.62-4.8
						C337.72,547.58,337.73,547.47,337.74,547.35"/>
					<path class="st15" d="M337.71,547.68l8.62,4.8c-0.01,0.07-0.02,0.13-0.04,0.18l-8.62-4.8
						C337.68,547.8,337.7,547.74,337.71,547.68"/>
					<path class="st66" d="M337.67,547.86l8.62,4.8c-0.01,0.04-0.02,0.07-0.03,0.1l-8.62-4.8
						C337.65,547.93,337.66,547.89,337.67,547.86"/>
					<path class="st65" d="M337.63,547.96l8.62,4.8c-0.01,0.03-0.02,0.06-0.04,0.08l-8.62-4.8
						C337.61,548.01,337.62,547.98,337.63,547.96"/>
					<path class="st64" d="M337.6,548.04l8.62,4.8c-0.01,0.02-0.03,0.05-0.04,0.07l-8.62-4.8
						C337.57,548.08,337.58,548.06,337.6,548.04"/>
					<path class="st63" d="M337.55,548.1l8.62,4.8c-0.02,0.02-0.03,0.04-0.05,0.06l-8.62-4.8
						C337.52,548.14,337.54,548.12,337.55,548.1"/>
					<path class="st60" d="M337.5,548.16l8.62,4.8c-0.05,0.05-0.11,0.08-0.18,0.09l-8.62-4.8
						C337.39,548.24,337.45,548.21,337.5,548.16"/>
				</g>
			</g>
			<g>
				<path class="st20" d="M334.57,511.07c-6.31,0.99-3.07,15.11-2.9,15.85c6.22,16.92,6.66,21.16,5.65,21.32
					c-0.94,0.15-3.03-3.06-3.14-3.23c-0.3-0.98-6-19.6-11.8-18.68c-0.09,0.01-0.19,0.04-0.28,0.06c-0.14,0.04-0.28,0.07-0.43,0.09
					c-5.86,0.93-13.6-10.55-14-11.16L334.57,511.07z"/>
			</g>
		</g>
	</g>
</g>
<g>
	<g>
		<g class="st0">
			<g class="st0">
				<defs>
					<path id="SVGID_65_" class="st0" d="M201.57,505.96l-8.62-4.8c1.79,1,4.17,1.34,7.46,0.82c0.93-0.15,1.93-0.36,3.02-0.65
						c14.03-3.76,15.61-9.86,15.69-10.18l8.62,4.8c-0.08,0.32-1.66,6.42-15.69,10.18c-1.08,0.29-2.09,0.51-3.02,0.65
						C205.74,507.3,203.36,506.96,201.57,505.96z"/>
				</defs>
				<clipPath id="SVGID_66_">
					<use xlink:href="#SVGID_65_"  style="overflow:visible;"/>
				</clipPath>
				<g class="st77">
					<path class="st15" d="M219.12,491.14l8.62,4.8c0,0.01-0.01,0.04-0.02,0.08l-8.62-4.8
						C219.11,491.18,219.11,491.15,219.12,491.14"/>
					<path class="st66" d="M219.1,491.22l8.62,4.8c-0.03,0.09-0.07,0.24-0.16,0.44l-8.62-4.8
						C219.02,491.46,219.07,491.31,219.1,491.22"/>
					<path class="st65" d="M218.94,491.66l8.62,4.8c-0.08,0.18-0.18,0.41-0.33,0.67l-8.62-4.8
						C218.75,492.07,218.86,491.84,218.94,491.66"/>
					<path class="st64" d="M218.61,492.33l8.62,4.8c-0.15,0.27-0.35,0.59-0.6,0.93l-8.62-4.8
						C218.26,492.92,218.45,492.61,218.61,492.33"/>
					<path class="st63" d="M218,493.26l8.62,4.8c-0.31,0.42-0.7,0.88-1.19,1.38l-8.62-4.8C217.31,494.15,217.7,493.68,218,493.26"/>
					<path class="st60" d="M216.81,494.64l8.62,4.8c-2.09,2.09-6.02,4.71-13.38,6.68c-1.08,0.29-2.09,0.51-3.02,0.65
						c-3.29,0.52-5.67,0.18-7.46-0.82l-8.62-4.8c1.79,1,4.17,1.34,7.46,0.82c0.93-0.15,1.93-0.36,3.02-0.65
						C210.79,499.35,214.72,496.73,216.81,494.64"/>
				</g>
			</g>
			<g class="st0">
				<defs>
					<path id="SVGID_67_" class="st0" d="M257.7,490.46l8.62,4.8c-7.17-4-17.76-3.51-26.04-2.19c-7.13,1.13-12.27,2.78-12.54,2.87
						l-8.62-4.8c0.27-0.09,5.41-1.74,12.54-2.87C239.94,486.96,250.53,486.47,257.7,490.46z"/>
				</defs>
				<clipPath id="SVGID_68_">
					<use xlink:href="#SVGID_67_"  style="overflow:visible;"/>
				</clipPath>
				<g class="st78">
					<path class="st60" d="M257.7,490.46l8.62,4.8c-7.17-4-17.76-3.51-26.04-2.19c-7.13,1.13-12.27,2.78-12.54,2.87l-8.62-4.8
						c0.27-0.09,5.41-1.74,12.54-2.87C239.94,486.96,250.53,486.47,257.7,490.46"/>
				</g>
			</g>
			<g class="st0">
				<defs>
					<path id="SVGID_69_" class="st0" d="M270.8,498.42l-8.62-4.8c2.28,1.27,4.98,1.52,7.88,1.06
						c13.55-2.15,30.59-18.79,31.48-19.67l8.62,4.8c-0.9,0.88-17.93,17.52-31.48,19.67C275.79,499.94,273.09,499.69,270.8,498.42z"
						/>
				</defs>
				<clipPath id="SVGID_70_">
					<use xlink:href="#SVGID_69_"  style="overflow:visible;"/>
				</clipPath>
				<g class="st79">
					<path class="st60" d="M301.55,475.01l8.62,4.8c-0.9,0.88-17.93,17.52-31.48,19.67c-2.9,0.46-5.6,0.21-7.88-1.06l-8.62-4.8
						c2.28,1.27,4.98,1.52,7.88,1.06C283.61,492.53,300.65,475.88,301.55,475.01"/>
				</g>
			</g>
			<g class="st0">
				<defs>
					<path id="SVGID_71_" class="st0" d="M302.08,457.49l8.62,4.8c1.68,0.94,4.29,2.64,8.32,5.63c11.71,8.71-7.82,11.73-8.85,11.88
						l-8.62-4.8c1.03-0.16,20.56-3.17,8.85-11.88C306.37,460.13,303.76,458.43,302.08,457.49z"/>
				</defs>
				<clipPath id="SVGID_72_">
					<use xlink:href="#SVGID_71_"  style="overflow:visible;"/>
				</clipPath>
				<g class="st80">
					<path class="st15" d="M302.08,457.49l8.62,4.8c0.19,0.11,0.4,0.22,0.61,0.35l-8.62-4.8
						C302.47,457.72,302.27,457.6,302.08,457.49"/>
					<path class="st16" d="M302.69,457.84l8.62,4.8c1.68,0.99,4.14,2.63,7.71,5.28c0.13,0.1,0.26,0.2,0.39,0.29l-8.62-4.8
						c-0.13-0.1-0.25-0.2-0.39-0.29C306.83,460.47,304.37,458.83,302.69,457.84"/>
					<path class="st69" d="M310.78,463.42l8.62,4.8c0.73,0.57,1.32,1.11,1.79,1.62l-8.62-4.8
						C312.1,464.52,311.51,463.98,310.78,463.42"/>
					<path class="st70" d="M312.57,465.04l8.62,4.8c0.93,1.02,1.4,1.95,1.52,2.79l-8.62-4.8
						C313.98,466.99,313.51,466.06,312.57,465.04"/>
					<path class="st69" d="M314.09,467.83l8.62,4.8c0.02,0.16,0.03,0.32,0.03,0.48l-8.62-4.8
						C314.12,468.16,314.12,468,314.09,467.83"/>
					<path class="st16" d="M314.12,468.31l8.62,4.8c0,0.14-0.02,0.29-0.04,0.43l-8.62-4.8C314.1,468.6,314.12,468.46,314.12,468.31"
						/>
					<path class="st15" d="M314.08,468.74l8.62,4.8c-0.02,0.11-0.05,0.23-0.08,0.34l-8.62-4.8
						C314.04,468.96,314.06,468.85,314.08,468.74"/>
					<path class="st66" d="M314,469.07l8.62,4.8c-0.03,0.11-0.07,0.22-0.12,0.33l-8.62-4.8C313.93,469.29,313.97,469.18,314,469.07"
						/>
					<path class="st65" d="M313.89,469.4l8.62,4.8c-0.05,0.13-0.12,0.26-0.19,0.38l-8.62-4.8
						C313.77,469.66,313.83,469.53,313.89,469.4"/>
					<path class="st64" d="M313.7,469.78l8.62,4.8c-0.08,0.14-0.17,0.27-0.26,0.4l-8.62-4.8
						C313.53,470.05,313.62,469.92,313.7,469.78"/>
					<path class="st63" d="M313.43,470.18l8.62,4.8c-0.15,0.21-0.33,0.4-0.53,0.6l-8.62-4.8
						C313.1,470.58,313.28,470.39,313.43,470.18"/>
					<path class="st60" d="M312.91,470.78l8.62,4.8c-3.03,2.95-10.72,4.13-11.36,4.23l-8.62-4.8
						C302.18,474.91,309.87,473.72,312.91,470.78"/>
				</g>
			</g>
			<g>
				<path class="st20" d="M299.26,456.42c0.66-0.1,2.98,0.64,11.14,6.7c11.71,8.71-7.82,11.73-8.85,11.88
					c-0.9,0.88-17.93,17.52-31.48,19.67c-3.63,0.58-6.95,0.05-9.52-2.22c-6.94-6.11-19.42-5.68-28.88-4.19
					c-7.13,1.13-12.27,2.78-12.54,2.87c-0.08,0.32-1.66,6.42-15.69,10.18c-1.08,0.29-2.09,0.51-3.02,0.65
					c-11.12,1.76-11.83-6.34-14.5-16.2c-2.9-10.69,12.7-13.13,13.52-13.26L299,456.67C299,456.66,298.97,456.46,299.26,456.42z"/>
			</g>
		</g>
	</g>
</g>
</svg>
