<?xml version="1.0" encoding="utf-8"?>
<!-- Generator: Adobe Illustrator 25.2.0, SVG Export Plug-In . SVG Version: 6.00 Build 0)  -->
<svg version="1.1" id="Layer_1" xmlns="http://www.w3.org/2000/svg" xmlns:xlink="http://www.w3.org/1999/xlink" x="0px" y="0px"
	 viewBox="0 0 595.28 841.89" style="enable-background:new 0 0 595.28 841.89;" xml:space="preserve">
<style type="text/css">
	.st0{fill:#DDBC83;stroke:#2B2B2B;stroke-miterlimit:10;}
	.st1{fill:#CAAA84;stroke:#9B7E57;stroke-miterlimit:10;}
	.st2{fill:none;stroke:#9B7E57;stroke-miterlimit:10;}
	.st3{fill:#CAAA84;}
	.st4{fill:#050606;}
	.st5{fill:#F7F6F5;}
	.st6{fill:#9B7E57;}
	.st7{fill:#CEC3B3;}
	.st8{fill:none;stroke:#A5875B;stroke-miterlimit:10;}
	.st9{fill:#DDBC83;}
	.st10{fill:#D8B482;}
	.st11{fill:none;stroke:#C4A276;stroke-miterlimit:10;}
	.st12{fill:#C4A276;}
	.st13{fill:none;stroke:#CEAC7A;stroke-miterlimit:10;}
	.st14{fill:#2B2B2B;}
	.st15{fill:#FFFFFF;}
	.st16{fill:#F2F2F3;}
	.st17{fill:none;stroke:#2B2B2B;stroke-miterlimit:10;}
	.st18{display:none;}
	.st19{display:inline;}
</style>
<polygon class="st0" points="473.64,852.53 432.51,805.35 402.74,854.34 "/>
<path class="st1" d="M411.77,841.89l27.49-23.63c0,0,1.7-3.4,2.38-2.04s0.68,1.36,0.68,1.36l1.7,1.02c0,0,0.57-6.02-5.79-16.34
	c0,0-2.63-12.09-10.33-17.28c0,0-0.56-5.68-8.39-10.88c0,0-15.66-14.74-16.34-20.18c-0.68-5.45,0-9.66,0-9.66
	s-15.91-14.57-21.57-30.54l0.38-4.4c0,0-7.41-5.45-15.92-35.74c0,0-3.74-5.74-9.19-12.57c0,0,1.7-20.79-23.83-39.51l-18.89-34.72
	l-14.47-1.87l2,101.28l89.24,151.49L411.77,841.89"/>
<path class="st2" d="M325.18,622.56c0,0,18.6,17.89,23.44,42.28c4.85,24.39,0,0,0,0l24.33,66.64l11.49,11.11l0.28,7.4l7.22,33.7
	l4.88,19.13l8.83,23.82l6.1,15.24"/>
<path class="st3" d="M376.62,841.89h35.15l-13.53-33.81c0,0-16.09-59.35-13.79-65.48c0,0-5.62-6.14-11.49-11.11
	c0,0-22.72-62.8-30.38-82.78c-7.66-19.98-27.46-35.6-27.46-35.6l-4.71,106.77L376.62,841.89"/>
<path class="st4" d="M376.62,768.13c0,0,0.17-6.38,6.04-4.6s3.32,13.53,3.32,13.53l-6.87,7.91
	C379.11,784.98,376.45,775.28,376.62,768.13z"/>
<path class="st5" d="M379.57,769.94l0.95-0.78c0,0-2.23-1.17,0-1.37c2.23-0.2,2.23-0.2,2.23-0.2v1.17l1.67,3.32v1.17l-2.08,1.76
	l-0.37,2.53l-2.45-1.95L379.57,769.94z"/>
<path class="st6" d="M376.62,738.51c0,0,4,1.53,4.51,3.32c0.51,1.79,1.36,5.11-2.26,8.17L376.62,738.51z"/>
<path class="st3" d="M275.61,629.25c0,0,19.88-1.08,30.21,16.47c10.33,17.55,0,0,0,0s-9.15,24.04-3.25,24.36
	s-32.91-10.5-35.31-18.25c-2.39-7.75,0,0,0,0L275.61,629.25"/>
<path class="st6" d="M313.3,599.02c0,0,14.91,9.3,11.88,23.54s0,0,0,0l-10.07-9.46l-1.82-12.01"/>
<path class="st3" d="M326.23,692.64c-0.34-7.15-13.96-89.53-12.94-93.62c1.02-4.09-2.78-28.94-2.78-28.94s-7.77-1.36-7.77-3.74
	c0-0.26-0.11-0.66-0.3-1.17c-2.74-0.31-4.13-2.56-4.18-4.84c-1.38-0.62-2.24-1.84-2.57-3.21c-2.06-0.66-3.14-2.56-3.21-4.53
	c-2.09-0.14-3.44-1.37-4.05-2.93c-5.49-0.05-31.1-20-31.1-20l-14.16,47.58c0,0,22.47,55.83,33.02,53.79
	c10.55-2.04,25.19,12.26,25.19,12.26l1.7,3.06c0,0-8.85,22.47-1.02,23.83c7.83,1.36,30.98,53.11,30.98,53.11
	S326.57,699.79,326.23,692.64z"/>
<path class="st2" d="M378.87,750c0,0-4.64,7.91-8.47,10.98c-3.83,3.06,13.79,48.26,13.79,48.26l14.81,31.4"/>
<path class="st2" d="M257.74,530.37l22.96,16.23c0,0,7.06-0.68,18.98,18.04c0,0,1.36,2.38,7.49,4.09c6.13,1.7,6.98,16,6.98,16
	l-1.87,12.6l-0.97,3.96l6.75,35.77l3.06,27.67l6.26,41.4"/>
<path class="st7" d="M282.06,642.78c0,0,11.49-2.04,9.96,9.19c0,0-9.19,5.36-16.85,2.3C267.51,651.2,279.26,639.46,282.06,642.78z"
	/>
<path class="st3" d="M53.04,537.34c0,0-15.02,4.06-15.3,19.89c-0.28,15.83-6.92,33.19-5.39,36.51c0,0-31.36,31.91-32.36,34.98
	s0,130.47,0,130.47v82.7h252.45H370.4l-4.09-21.42c0,0-18.38-46.47-21.96-52.09c-3.57-5.62-7.66-29.62-7.66-29.62l-4.23-17.58
	c0,0-14.5-51.56-32.97-51.2l0.17-1.69c0,0-32.93-11-32.42-16.47c0,0-9.45,20.71-25.28,20.38s-62.04-56.76-62.04-56.76l-81.96-59.23
	L53.04,537.34z"/>
<path class="st6" d="M5.55,795.45l36.77-11.74c0,0,89.87,29.62,99.06,43.91c9.19,14.3-60.26-7.66-60.26-7.66
	s-36.01-23.49-52.6-25.02S5.55,795.45,5.55,795.45z"/>
<path class="st3" d="M76.06,476.78c0,0-19.79,1.05-15.02,21.81c0,0-9.53,23.49-9.53,38.13l-3.4,2.04c0,0,13.28,20.43,26.55,25.53
	s46.64,28.26,57.87,33.02c11.23,4.77,70.13,43.91,75.57,50.72c5.45,6.81,21.45,31.32,41.87,22.13
	c20.43-9.19,26.21-44.94,26.21-44.94L135.7,534.36l-55.8-35.97C79.9,498.39,74.74,504.33,76.06,476.78"/>
<path class="st2" d="M299.68,668.3c0,0,18.3,14.84,28.94,45.42"/>
<path class="st2" d="M50.39,537.34C51.71,544.06,55,551,61,555c20,12,39,23,59,35c9,5,18,8,27,14c16,11,29,21,45,32c8,6,15,12,21,19
	c2,2,5,3,7,5c9,6,20,13,31.2,8.82c0,0,25.5-20.06,23.2-42.72L73.47,496.21c0,0-6.38-8.17,1.02-13.53l0.26-6.13
	c0,0-12.26,4.85-13.79,8.17c-1.53,3.32-1.53,12.26-1.53,12.26S47.99,525.11,50.39,537.34z"/>
<line class="st8" x1="285.55" y1="646.39" x2="285.55" y2="647.66"/>
<line class="st8" x1="281.21" y1="646.39" x2="281.21" y2="647.66"/>
<line class="st8" x1="280.7" y1="649.68" x2="280.7" y2="650.96"/>
<line class="st8" x1="284.53" y1="649.68" x2="284.53" y2="650.96"/>
<path class="st9" d="M77.04,498.6l195.4,125.96c0.68-20.09-21.11-38.47-21.11-38.47s-0.34-39.15,2.38-44.6
	c2.72-5.45,6.47-19.74,6.47-19.74s1.7-12.6,1.7-16.34c0-3.74,4.43-3.74,4.43-3.74l28.26-37.11l-36.43-4.43l-68.43-47.66
	l-67.06-37.45l-45.96-9.87L62.74,390l12.76,72.99l1.2,33.9"/>
<path class="st10" d="M246.4,584.89l-6.97,2.55v3.06L235,594.6l-4,1.4l11.06,7.15c0,0,5.03-0.04,8.69-8.55
	C254.4,586.09,246.4,584.89,246.4,584.89"/>
<path class="st10" d="M147.51,457.74v4.77v4.43l3.74,8.17l5.11,4.43l7.49,4.09l8.51,8.51l7.15,9.19c0,0,1.02,2.26,16,7.77
	c14.98,5.51,28.94,10.27,28.94,10.27l24.17,1.7l9.12-3.06l2.45-13.62l6.13-4.77v-22.83l-68.09-21.08L147.51,457.74z"/>
<path class="st0" d="M346.53,365.23c0.64,0.51,13.4-4.34,15.96-6.89c2.55-2.55,3.06-19.91,0-25.53
	c-3.06-5.62-24.51-38.81-26.82-40.09s0-5.36,0-5.36c5.35-3.57,4.87-4.6,4.87-4.6c2.04-2.04,1.79-14.3,1.79-14.3
	c0.12-0.05,0.22-0.13,0.33-0.19c-0.11-0.41-0.17-0.84-0.16-1.28c0.04-1.64-0.26-2.63-0.39-4.35c-0.12-1.51,0.05-3.02,0.07-4.52
	c0.01-0.46,0.08-0.9,0.2-1.32c-0.18-0.96-0.08-1.95,0.25-2.85c-2.11-3.68-2.76-7.81-3.16-12.05c-0.05-0.51-0.11-0.99-0.19-1.45
	c-0.37-0.67-0.71-1.37-1.07-2.08c-0.08-0.17-0.18-0.32-0.27-0.49c-0.58-0.77-1.07-1.6-1.41-2.51c-0.22-0.36-0.44-0.71-0.66-1.07
	c-1.36-1.64-2.74-3.27-3.62-5.25c-0.37-0.47-0.62-0.97-0.76-1.47c-3.59-4.86-6.38-8.94-5.75-10.19c1.53-3.06,0-15.83,0-15.83
	c3.32-5.49-0.13-18.38-0.13-18.38l-19.28-21.32l-71.49-9.32l-56.17,8.3l-15.06,57.57l-26.55,77.74l-27.57-24l-41.62-10.72
	c0,0-19.4,19.91-26.96,35.18c-7.55,15.26,0.86,34.98,0.86,34.98c18.08,41.43,34.95,43.08,34.95,43.08
	c3.49-0.51,15.79,9.57,15.79,9.57c8.04,14.81,36.77,9.32,36.77,9.32c4.09,19.53,25.06,26.82,25.06,26.82l9.92,19.52l130.98,46.72
	c0,0,52.85-13.4,53.25-24.89c0.4-11.48-5.89-16.26-5.89-16.26l-3.32-6.98c11.36-13.15,8.04-15.06,8.04-15.06s3.7-2.04,1.4-10.47
	c-2.3-8.43-6.26-10.34-6.26-10.34l0.51-1.4c0,0,2.17-0.89,3.32-3.19s2.68-4.09,3.19-12s-2.68-9.06-2.68-9.06s0.77-4.85-1.02-5.36
	S345.89,364.72,346.53,365.23z"/>
<path class="st10" d="M273.81,278c0,0,8.17-3.74,10.72-3.4c0,0-0.68-5.79,4.77-2.04s9.19,11.99,9.19,11.99s-0.85,3.95-5.96,2.19
	s-1.19,9.82-1.19,9.82l-17.53,0.68v-3.06V278z"/>
<path class="st11" d="M292.42,405.83c0,0,5.56-0.52,14.41,10.21c8.85,10.72,21.79,10.04,21.79,10.04"/>
<path class="st11" d="M345.15,420.94c0,0-2.76,4.24-4.28,5.82"/>
<path class="st12" d="M295.26,403.19c0,0,45.32,3.03,46.04-0.84S302.51,403.44,295.26,403.19z"/>
<path class="st13" d="M304.28,337.51c0,0-9.53,33.87,18.55,22.64"/>
<path class="st14" d="M322.83,358c0,0,22.13-3.74,21.45,2.55h-21.45C322.83,360.55,320.52,358.34,322.83,358z"/>
<path class="st13" d="M329.81,278.7c0,0,9.87-4.28,8.17,2.36"/>
<path class="st13" d="M249.38,282.58c0,0,26.1-16.92,38.2-11.04"/>
<path class="st15" d="M251.34,289.06c0,0,20.94-12.43,26.04-10.04c5.11,2.38,14.47,10.55,8,15.15
	C285.38,294.17,258.66,293.83,251.34,289.06z"/>
<path class="st14" d="M270.74,281.13c0,0-1.87,12.31,5.62,13.27c7.49,0.96,8.92,0.11,11.27-3.12c2.35-3.23-8.55-13.03-11.44-12.56
	C273.31,279.19,272.44,279.15,270.74,281.13"/>
<path class="st16" d="M279.96,282.6h-1.53c0,0-1.36,2.89,0,2.89s1.53,1.02,1.53,1.02h1.19C281.15,286.51,283.19,282.26,279.96,282.6
	z"/>
<path class="st17" d="M249.38,288.81c0,0,23.91-13.94,36.34-12.37"/>
<path class="st14" d="M283.68,420.94l3.06-5.41l1.7-4.43l3.06-4.77l3.06-1.7l5.45-3.4l6.47-2.38h2.72h2.72l2.89-10.21l13.97-6.81
	h8.66h3.06c0,0,3.22-2.72,2.97,0c0,0,5.48,3.74,5,9.19c-0.48,5.45,1.56-10.4,1.56-10.4s-1.7-0.49-3.74-7.98
	c-2.04-7.49-10.09,0-10.09,0l-3.16-0.68c0,0-0.37-9.38-19.77-2.65c-19.4,6.73-29.28,11.49-29.62,24.6
	C283.34,407.02,283.68,420.94,283.68,420.94z"/>
<path class="st14" d="M229.21,264.38c0,0,7.49,2.04,16,0c8.51-2.04,25.19-5.45,25.19-5.45h14.3l9.87,2.04l3.06,1.13
	c0,0,16,6.24,17.02,0c1.02-6.24-2.04-10.33-23.15-10.67S263.26,246.34,229.21,264.38z"/>
<path class="st14" d="M328.83,276.57c0,0,8.17-7.91,13.62-5.83c0,0,2.38-8.4,0-17.12C342.45,253.63,328.15,272.83,328.83,276.57z"/>
<g>
	<g>
		<path class="st14" d="M340.6,452.76c0.22,0.08,0.43,0.17,0.65,0.25c1.54,0.6,3.17-0.92,3.16-2.41c-0.01-2.65-0.54-5.6-3.16-6.91
			c-1.43-0.71-2.96-0.64-4.38,0.05c-0.38,0.18-0.72,0.42-1.05,0.68c-0.3,0.23-0.6,0.46-0.89,0.69c-0.21,0.17-0.17,0.14,0.12-0.09
			c-0.09,0.07-0.17,0.13-0.26,0.19c-0.18,0.12-0.36,0.22-0.54,0.34c-0.24,0.12-0.19,0.1,0.17-0.06c-0.1,0.04-0.21,0.07-0.31,0.1
			c-0.28,0.05-0.22,0.05,0.17-0.02c-0.11,0-0.22,0-0.32-0.01c0.4,0.06,0.46,0.06,0.19,0.01c-0.1-0.03-0.21-0.06-0.31-0.1
			c0.34,0.15,0.39,0.16,0.15,0.04c-0.1-0.06-0.19-0.11-0.28-0.18c0.28,0.22,0.31,0.25,0.11,0.07c-0.09-0.08-0.17-0.16-0.25-0.24
			c-0.08-0.08-0.16-0.17-0.23-0.26c0.21,0.28,0.24,0.3,0.08,0.08c-0.06-0.1-0.12-0.2-0.18-0.3c-0.12-0.25-0.11-0.21,0.03,0.12
			c-0.13-0.13-0.15-0.49-0.2-0.67c-0.05-0.26-0.04-0.23,0.01,0.11c-0.01-0.14-0.02-0.29-0.02-0.43c0-0.12,0.1-1.02,0-0.41
			c0.05-0.29,0.11-0.57,0.19-0.85c0.08-0.28,0.17-0.56,0.27-0.84c0.05-0.14,0.1-0.28,0.16-0.41c-0.11,0.26-0.11,0.25,0.01-0.02
			c0.24-0.54,0.5-1.07,0.77-1.6c-1.31,0.17-2.62,0.34-3.93,0.51c0.31,0.35,0.61,0.71,0.92,1.06c0.86,0.99,2.67,0.95,3.54,0
			c0.97-1.06,0.92-2.48,0-3.54c-0.31-0.35-0.61-0.71-0.92-1.06c-1.02-1.17-3.23-0.87-3.93,0.51c-0.98,1.95-1.86,3.91-2.04,6.1
			c-0.17,2.06,0.61,4.2,2.12,5.62c1.49,1.4,3.71,2.16,5.69,1.38c0.99-0.39,1.75-0.96,2.58-1.61c0.06-0.05,0.13-0.1,0.19-0.15
			c0.21-0.17-0.18,0.15-0.19,0.14c-0.01-0.01,0.35-0.25,0.39-0.28c0.13-0.08,0.27-0.16,0.4-0.24c0.06-0.04,0.32-0.16-0.02,0
			c-0.34,0.16-0.04,0.03,0.06,0.01c0.32-0.07-0.55,0.02-0.21,0.03c0.3,0.01-0.46-0.15-0.16-0.04c0.03,0.01,0.22,0.08,0.25,0.07
			c-0.11,0.05-0.43-0.25-0.13-0.03c-0.01-0.01-0.35-0.33-0.16-0.13c0.08,0.08,0.17,0.17,0.25,0.25c0.21,0.18-0.14-0.13-0.11-0.16
			c-0.01,0.01,0.17,0.28,0.19,0.3c0.03,0.06,0.13,0.32,0.03,0.04c-0.12-0.32,0.02,0.12,0.04,0.18c0.03,0.1,0.05,0.2,0.08,0.3
			c0.16,0.62,0-0.3,0.02,0.06c0.03,0.53,0.05,1.05,0.06,1.58c1.05-0.8,2.11-1.61,3.16-2.41c-0.22-0.08-0.43-0.17-0.65-0.25
			c-1.22-0.48-2.8,0.52-3.08,1.75C338.52,451.12,339.29,452.25,340.6,452.76L340.6,452.76z"/>
	</g>
</g>
<g class="st18">
	<g class="st19">
		<path class="st14" d="M330.76,440.87c0.13,0.07,0.26,0.15,0.39,0.22c0.42,0.23-0.35-0.36-0.05-0.03c0.1,0.11,0.2,0.21,0.3,0.31
			c0.35,0.36-0.3-0.47-0.03-0.04c0.16,0.26,0.31,0.51,0.44,0.79c0.03,0.07,0.07,0.14,0.1,0.21c0.08,0.17,0.04,0.09-0.1-0.24
			c-0.02,0.1,0.13,0.35,0.16,0.44c0.46,1.31,0.77,2.64,1.33,3.92c0.59,1.36,1.54,2.64,2.85,3.38c0.92,0.53,1.87,0.67,2.9,0.8
			c-0.43-0.05-0.16,0.01,0.11,0.04c0.48,0.07-0.26-0.16-0.06-0.04c0.16,0.1,0.1,0.04-0.19-0.17c0.14,0.15,0.15,0.14,0-0.03
			c-0.12-0.13-0.2-0.29-0.24-0.47c-0.03-0.43-0.05-0.51-0.07-0.24c-0.14,1.3,1.25,2.56,2.5,2.5c1.47-0.07,2.35-1.1,2.5-2.5
			c0.14-1.33-0.72-2.58-1.78-3.29c-0.43-0.29-0.92-0.5-1.42-0.61c-0.37-0.09-0.77-0.13-1.15-0.17c-0.54-0.07,0.46,0.11-0.11-0.02
			c-0.11-0.03-0.41-0.14-0.52-0.13c0.37,0.17,0.43,0.19,0.19,0.08c-0.04-0.02-0.09-0.05-0.13-0.07c-0.08-0.05-0.16-0.1-0.24-0.15
			c0.29,0.24,0.37,0.29,0.22,0.17c-0.1-0.12-0.25-0.24-0.36-0.36c-0.33-0.32,0.3,0.46,0.02,0.04c-0.08-0.13-0.17-0.25-0.24-0.38
			c-0.08-0.13-0.15-0.27-0.22-0.41c-0.04-0.07-0.35-0.65-0.13-0.27c0.21,0.35-0.04-0.12-0.07-0.21c-0.06-0.17-0.12-0.34-0.17-0.52
			c-0.09-0.29-0.17-0.59-0.26-0.88c-0.18-0.65-0.38-1.29-0.64-1.92c-0.67-1.66-1.64-3.22-3.29-4.06c-1.16-0.59-2.76-0.34-3.42,0.9
			C329.26,438.59,329.51,440.23,330.76,440.87L330.76,440.87z"/>
	</g>
</g>
<path class="st14" d="M342.57,445.49l-3.32-6.98l5.54-7.12c0,0-1.52-5.17-8.64,2.25c-7.12,7.42,0.29,14.57,0.29,14.57"/>
<path class="st14" d="M184.02,186c0,0,26.24-15.08,39.83-16.85c17.62-2.3,5.36-2.3,17.62-2.3c12.26,0,10.72,3.06,10.72,3.06
	l9.96,6.51c0,0,14.55-8.81,51.32,6.51c0,0,4.6,0.77,13.02,19.91c0,0,15.4-7.23,14.38-31.4s-7.83-52.43-17.36-64
	c-9.53-11.57-65.36-73.19-87.83-76.6c-22.47-3.4-13.96,1.7-13.96,1.7s2.04,5.11,0,4.09c-2.04-1.02-8.85-6.47-26.21-8.51
	s-53.45-1.7-53.45-1.7l-35.4-0.02c0,0-39.49,4.79-47.66,24.19c0,0-30.3,12.6-37.79,38.47c0,0-3.4,12.94-7.83,12.94
	S0,116.98,0,116.98v186.21c0,0,36.53,88.17,38.91,88.51c2.38,0.34,24.17,36.77,24.17,36.77l5.79,23.15l2.04,3.4l1.36,4.09l4.77,2.72
	l1.7,3.4h3.74l1.7-5.45l-0.34-7.83l2.04-8.51l6.47-9.87l-2.38-14.64c0,0-7.83-14.64-6.81-19.74S71.6,396.13,75,377.06l1.7-2.38
	c0,0-16.34-3.06-32-36.09s0-50.72,7.15-57.87c7.15-7.15,30.3-3.74,35.74,3.4c5.45,7.15,14.64,9.53,14.64,9.53l11.91,6.47
	c0,0,8.85,5.79,11.23,14.64l4.43,2.72c0,0,14.98,30.64,13.62,36.43c-1.36,5.79,10.55,40.17,10.55,40.17s4.09,24.17-1.36,29.28
	s-10.21,29.62-10.21,29.62s5.05,2.38,28.06,14.3c0,0-18.86,12.26,26.41,28.26c0,0,26.55,19.74,50.04,11.57c0,0,4.77-9.87,19.4-7.49
	c14.64,2.38,48.68-4.43,48.68-4.43s26.89-8.85,32-25.53s-4.43-24.17-4.43-24.17s-4.43,3.4-6.13,2.72s-3.74-7.49-3.74-7.49
	s5.45-12.26,8.17-13.96c2.72-1.7-12.26-0.68-12.26-0.68s-0.34,6.81-1.7,5.45s-6.81-3.4-6.81-3.4l-2.99,4.09
	c0,0,10.48,4.43,10.48,8.51c0,4.09-1.7,14.98-17.36,10.89c0,0-13.96-7.83-14.64-13.62s-28.6,3.74-28.6,3.74s-9.53,6.81-17.36-10.21
	c-7.83-17.02-26.89-27.91-26.89-27.91s-21.79-28.6-30.64-34.38s-34.38-29.96-41.53-50.38c-7.15-20.43,6.47-62.3,29.96-82.38
	C180.53,236.47,199.77,194.43,184.02,186z"/>
<path class="st15" d="M331,288.81h2.3c0,0,2.11-2.13,0.89-2.3c-1.23-0.17-3.18-0.07-3.18-0.07V288.81z"/>
<path class="st14" d="M331,283.28c0,0,10.13-2.17,10.55-0.7s-3.38,2.49-3.38,2.49l-2.92,0.85l-2.3,1.28H331V283.28z"/>
<path class="st13" d="M345.15,365.23c0,0-5.87-0.13-11.49,6.26"/>
<path class="st13" d="M92.36,328.04c0,0-1.02-53.62-37.11-39.23c0,0-33.02,28.36,18.55,73.62"/>
<path class="st13" d="M59.68,310c0,0-11.7,46.05,26.93,55.23"/>
<path class="st10" d="M100.94,344.1c-0.05-5.64,0.1-11.27-0.42-16.86c-13.8,11.73-12.2-2.85-12.2-2.85s5.79-9.63-0.31-13.04
	s-12.63,8.95-12.63,8.95c-17.02,27.32,9.22,34.98,9.22,34.98c7.87-1.54,12.9-0.53,15.91,0.79
	C101.67,352.36,100.97,347.57,100.94,344.1z"/>
<path class="st3" d="M171.77,614.68l51.06,42.89L220,661c0,0-34.34-32.04-51.88-41.99S171.77,614.68,171.77,614.68z"/>
<path class="st2" d="M127.11,594.6L123,613.1l4.11,1.58c0,0-7.52,81.02-17.73,114.38"/>
<path class="st2" d="M1.47,757.66c0,0,51.06-36.77,105.19-23.15l29.28,12.94"/>
<path class="st2" d="M274.4,633.24c0,0,36-5.28,25.28,35.06c0,0-31.33-9.15-31.62-17.98"/>
<path class="st6" d="M243.17,841.89h9.19c0,0-2.04,4.96-2.72-20.57c0,0-22.81-47.32-29.96-47.32c-7.15,0-13.96,9.53-13.96,9.53
	l-2.04,2.04C203.68,785.57,235.68,816.84,243.17,841.89z"/>
<path class="st6" d="M330.13,716.94l14.48,53.65l23.15,53.45l3.74,18.24l5.11-0.39c0,0-27.23-68.57-32.34-89.34l-5.02-8.26
	L330.13,716.94z"/>
<path class="st6" d="M274.55,589.49c8.45-3.06,15.26-6.47,23.09-1.53s12.77,9.36,12.77,9.36s7.21,30.47,4.71,31.91
	c-2.5,1.45-6.58,5.02-9.65,0c-3.06-5.02-3.06-5.02-3.06-5.02l-7.31-5.11h-5.29l-17.19-27.23c0,0-21.28-14.3-21.28-13.28
	c0,1.02,0-4.1,0-4.1l23.22,10.91"/>
</svg>
