<?xml version="1.0" encoding="utf-8"?>
<!-- Generator: Adobe Illustrator 25.2.0, SVG Export Plug-In . SVG Version: 6.00 Build 0)  -->
<svg version="1.1" id="Layer_1" xmlns="http://www.w3.org/2000/svg" xmlns:xlink="http://www.w3.org/1999/xlink" x="0px" y="0px"
	 viewBox="0 0 841.89 595.28" style="enable-background:new 0 0 841.89 595.28;" xml:space="preserve">
<style type="text/css">
	.st0{fill:#EF3856;}
	.st1{fill:#D33150;}
	.st2{fill:#FFFFFF;}
	.st3{fill:#ECD09D;stroke:#302C2C;stroke-miterlimit:10;}
	.st4{fill:#C6AC93;}
	.st5{fill:#CEB397;}
	.st6{fill:none;stroke:#C6AC93;stroke-miterlimit:10;}
	.st7{fill:#CEB299;stroke:#CEB299;stroke-miterlimit:10;}
	.st8{fill:#302C2C;}
	.st9{display:none;fill:#302C2C;}
	.st10{fill:#CEB299;}
	.st11{fill:#DCDBDB;}
	.st12{fill:#F9F9FA;}
	.st13{fill:none;stroke:#CEB397;stroke-miterlimit:10;}
	.st14{fill:none;stroke:#E8919F;stroke-miterlimit:10;}
	.st15{fill:none;stroke:#000000;stroke-miterlimit:10;}
	.st16{fill:#E0E0E0;}
	.st17{fill:#F4F4F5;}
</style>
<path class="st0" d="M568.72,595.28h50.04c0,0,6.64-6.06,6.13-25.98c-0.51-19.91-9.7-105.52-21.96-141.1s-50.04-79.15-69.96-80.86
	l-37.87-17.02l-23.36,77.87l-7.71,187.08H568.72z"/>
<path class="st1" d="M511.4,368.4l4.72-29.14l30.07,13.39c0,0,20.17,16.53,24.57,22.1c4.4,5.57,0,7.53,0,7.53L511.4,368.4z"/>
<path class="st1" d="M585.06,411.3c0,0,14.64,53.49,4.09,69.49l-2.38,1.7l0.68,9.19c0,0,13.28-22.72,11.23-34.34
	C596.64,445.72,606.51,444.62,585.06,411.3z"/>
<path class="st1" d="M606.51,461.81c0,0-6.89,58.98-9.19,60c-2.3,1.02-17.94,27.57-26.46,27.83c-8.52,0.26,0,0,0,0v25.79
	c0,0,44.84-27.83,43.82-52.09C613.66,499.09,606.51,461.81,606.51,461.81z"/>
<path class="st1" d="M568.47,525.13l13.53-6.38c0,0,14.04-4.09,6.89,6.38c-7.15,10.47-18.03,20.43-18.03,20.43L568.47,525.13z"/>
<path class="st1" d="M573.06,576.83l31.79-16.85c0,0,5.36-3.06,6.77-1.66c1.4,1.4,2.17,5.11,2.17,5.11s2.55,10.21,2.55,11.62
	c0,1.4,5.23,13.27-4.47,20.23h-43.4l2.39-18.66L573.06,576.83z"/>
<path class="st0" d="M347.28,595.28c0,0,19.21-48.49,40.67-47.7c21.46,0.79,55.02,7.94,55.02,7.94l-10.05,39.76H347.28z"/>
<path class="st2" d="M137.58,467.43l13.44-16.09c0,0,5.11-16.34,22.47-18.13c0,0,15.83-16.51,25.53-21.91
	c9.7-5.41,16.85-4.73,16.85-4.73s65.14-44.07,74.38-40.58c9.24,3.49,186.76,43.38,186.76,43.38s12.05,17.55,15.37,27.2
	c3.32,9.66,0-3.36,0-3.36l20.85,37.53c0,0,21.79,25.02,25.87,39.32c4.09,14.3,16.34,29.11,17.87,38.3l-38.54,26.55
	c0,0-42.65,26.55-49.8,31.66c-7.15,5.11-36.77,15.32-39.32,18.89s-3.84-56.68-3.84-56.68s-35.47-51.06-65.61,4.09l-12.6,22.4H241.4
	H137.58V467.43z"/>
<path class="st0" d="M308.72,321.16c0,0-20.85,30.81-18.47,44.84c2.38,14.02,14.98,36.15,14.98,36.15l21.11,40.17
	c0,0,26.87,38.81,61.61,41.19c34.73,2.38,55.09-0.68,73.34-14.64c18.25-13.96,0-1.7,0-1.7s15.01-32.17,13.73-49.28
	c-1.28-17.11-153.79-104.94-153.79-104.94L308.72,321.16z"/>
<path class="st3" d="M537.24,223.33c-0.47-5.47-1.17-11.04-0.36-16.42c-0.03-0.05-0.06-0.1-0.09-0.16c0,0-9.02-36.95-14.38-35.5
	L515,137.81l-99.22-29.62l-41.55,24.51l-59.49,85.53l-11.13,16.77c0,0-9.55-4.43-10.91,11.91c-1.36,16.34,3.4,25.87,3.4,25.87
	s4.88,16.68,1.93,24.85s8.28,21.11,8.28,21.11s7.15,8.92,11.23,2.42c0,0-6.47,32.31,2.04,53.07c8.51,20.77,25.87,34.04,25.87,34.04
	s20.43,16,31.66,21.11c11.23,5.11,53.11,26.21,75.57,6.47c22.47-19.74,28.94-34.04,40.17-43.57c11.23-9.53,31.66-45.28,31.66-45.28
	s2.04-9.19,3.74-18.38s2.04-38.13,2.04-38.13s8.17-16.34,7.15-16.68c-1.02-0.34,3.92,2.72,0.09-27.91
	C536.18,234.87,536.53,228.04,537.24,223.33z"/>
<g>
	<g>
		<path class="st4" d="M414.8,266.45c2.26,2.42,5,4.34,7.61,6.35c2.68,2.05,5.38,4.09,8.29,5.8c0.53,0.31,1.35,0.08,1.88-0.12
			c0.16-0.06,1.32-0.62,0.84-0.9c-2.92-1.71-5.61-3.75-8.29-5.8c-2.62-2-5.35-3.93-7.61-6.35
			C416.98,264.85,414.27,265.88,414.8,266.45L414.8,266.45z"/>
	</g>
</g>
<g>
	<g>
		<path class="st5" d="M389.33,267.03c3.87-1.7,8.55-0.96,12.65-0.81c4.58,0.17,9.16,0.34,13.75,0.51c0.57,0.02,1.46-0.2,1.82-0.68
			c0.32-0.42,0.2-0.77-0.36-0.88c-5.86-1.16-11.84-1.4-17.78-0.76c-0.48,0.05-1.57,0.36-1.65,0.96c-0.09,0.64,0.84,0.62,1.24,0.58
			c5.48-0.59,10.99-0.33,16.4,0.75c0.49-0.52,0.98-1.04,1.46-1.56c-5.07-0.19-10.15-0.38-15.22-0.56
			c-4.52-0.17-9.19-0.54-13.45,1.32c-0.38,0.17-1.18,0.62-0.78,1.12C387.78,267.49,388.91,267.21,389.33,267.03L389.33,267.03z"/>
	</g>
</g>
<path class="st6" d="M484.79,282.49c0,0,22.64-11.91,40.09,5.96"/>
<path class="st7" d="M312.77,261.55c0,0-10.72,7.75-8.17,15.79s10.6,9.06,10.6,9.06s2.94,8.55,3.19,11.23
	c0.26,2.68,1.55-15.45,1.55-15.45l-6.53-20.64"/>
<path class="st8" d="M320.33,283.33c0,0,4.03-38.93,10.07-43.62c6.04-4.7,8.72-18.12,17.45-18.12c0,0,3.36-11.41,8.05-12.08
	c0,0-11.41-2.01,0-20.13c0,0-3.36-24.16,15.44-36.91c18.79-12.75,32.89-6.04,32.89-6.04l10.07,1.34c0,0,12.08-6.89,17.45-3.11
	c5.37,3.78,34.9,13.85,34.9,13.85s52.35,1.34,55.7,12.75c0,0,12.08,3.36,12.08,6.04c0,2.68,8.72-8.72,8.72-8.72
	s5.37-17.45-23.49-34.23s-30.2-40.94-59.73-39.6c-29.53,1.34-48.32-16.11-97.32-4.03s-53.69,66.44-53.69,66.44l-5.37,77.85
	L320.33,283.33z"/>
<path class="st8" d="M513.4,156.53l23.02,49.01c0,0,0.72-18.54,0-27.06C535.7,169.98,513.4,156.53,513.4,156.53z"/>
<path class="st8" d="M487.98,270.91l3.28-6.47l3.85-2.89l3.85-1.7h4.06l2.39-0.85h6h5.57l2.72,0.85l5.51,0.17l4.19,1.36l2.38,0.17
	h3.4h2.89c0,0,1.87,2.55,1.19,5.11s-1.19,5.45-1.19,5.45h-6.3h-5.45l-7.91-1.19l-7.92-1.46c0,0-6.63-1.12-9.61,0
	s-9.64,1.29-9.64,1.29L487.98,270.91z"/>
<path class="st9" d="M536.74,274.49l2.36-4.09v-8.34c0,0-32.68-7.66-41.53-1.53c-8.85,6.13-10.21,9.87-10.21,9.87
	S528.25,267.68,536.74,274.49z"/>
<g>
	<path class="st10" d="M459.97,352.65c-2,0.98-2.8,3.38-4.33,5c-0.59,0.63-1.29,1.14-1.82,1.82s-0.86,1.6-0.55,2.4
		c0.05,0.12,0.11,0.24,0.21,0.32c0.16,0.13,0.39,0.14,0.6,0.14c0.99,0.01,1.98,0.03,2.98,0.04c0.24,0,0.49,0.01,0.7,0.12
		c0.46,0.24,0.6,0.89,1.07,1.11c0.49,0.24,1.06-0.11,1.46-0.49c0.4-0.37,0.84-0.81,1.38-0.78c0.17,0.01,0.36,0.06,0.48-0.06
		c0.08-0.08,0.09-0.2,0.1-0.31c0.05-0.9-0.05-1.81,0.08-2.7c0.07-0.46,0.19-0.9,0.26-1.35c0.17-1.04,0.05-2.12-0.32-3.1
		c-0.06-0.16-0.13-0.32-0.26-0.44c-0.16-0.15-0.38-0.21-0.55-0.35c-0.27-0.22-0.37-0.63-0.69-0.77c-0.31-0.14-0.68,0.04-0.88,0.31
		c-0.2,0.27-0.27,0.62-0.36,0.94c-0.45,1.63-1.53,3.12-3.04,3.88c-0.54,0.27-1.12,0.45-1.61,0.8c-0.49,0.35-0.87,0.94-0.74,1.53
		c0.14,0.62,0.79,1,1.42,1.08c0.63,0.08,1.26-0.05,1.89-0.07c0.82-0.02,1.64,0.16,2.37,0.53c0.4,0.2,0.96,0.42,1.22,0.05
		c-0.94-1-1.77-2.44-1.18-3.68c0.21-0.44,0.57-0.79,0.89-1.16c0.32-0.37,0.62-0.8,0.64-1.29c0.02-0.49-0.34-1.02-0.83-1.02
		c0.09,1.15-1.06,1.97-2.07,2.54c-0.55,0.31-1.09,0.61-1.64,0.92c-0.56,0.31-1.16,0.68-1.35,1.28c-0.04,0.12-0.05,0.26,0.01,0.37
		c0.05,0.1,0.16,0.15,0.26,0.2c0.5,0.23,1.04,0.34,1.59,0.34c0.33,0,0.68-0.06,0.91-0.3c0.23-0.24,0.23-0.7-0.06-0.85
		c-0.18-0.09-0.41-0.04-0.59-0.14c-0.33-0.17-0.27-0.69,0.01-0.93c0.28-0.23,0.68-0.25,1.05-0.26"/>
</g>
<path class="st6" d="M403.28,369.72c0,0,16.6,20.09,22.13,24.51c5.53,4.43,21.02,13.62,30.55,9.11
	c9.53-4.51,21.19-22.04,21.19-22.04l6.55-8.47l-8.68,7.53c0,0-11.85-0.68-17.12,1.96s-55.5-11.25-55.1-13.92L403.28,369.72z"/>
<path class="st6" d="M402.26,368.49c0,0,19.15-3.32,21.57-2.3c2.43,1.02,22.09,1.05,22.09,1.05s5.36-1.43,9.06,0.61
	c3.7,2.04,12,1.15,12,1.15s3.32-2.43,6.77-1.4c3.45,1.02,9.96,4.34,9.96,5.23c0,0.89-8.17,7.02-8.17,7.02h-11.49l-15.49-0.77
	c0,0-8.13-2.3-17.45-1.15c0,0-7.28-1.4-6.77-2.68c0.51-1.28-2.3,0.89-7.28-1.53c-4.98-2.43-11.76-4.31-11.23-5.11"/>
<path class="st2" d="M433.04,378.32c0,0-1.04,2.3,2.79,3.06c0,0,7.91,3.28,8.94,2.6s2.51-3.91,2.04-4.51
	C446.34,378.87,441.85,376.96,433.04,378.32z"/>
<path class="st2" d="M457.28,379.52c0,0-0.05,4.09-0.94,4.56s-11.57-0.09-11.57-0.09l2.13-4.89L457.28,379.52z"/>
<g>
	<g>
		<path class="st4" d="M403.91,370.45c0.98,1.97,2.59,3.47,4.21,4.92c0.51,0.46,3.21-0.28,2.8-0.92c-0.75-1.19-1.61-2.29-2.59-3.29
			c-0.4,0.37-0.8,0.75-1.2,1.12c-0.82,0.23-0.85-0.01-0.38,0.21c0.14,0.07,0.28,0.14,0.41,0.21c0.26,0.13,0.52,0.28,0.76,0.44
			c0.47,0.31,0.94,0.69,1.23,1.18c0.72,1.24,0.19,2.78,0.32,4.13c0.93-0.31,1.87-0.61,2.8-0.92c-0.72-0.97-1.19-2.07-1.5-3.23
			c-0.31-1.21-0.48-2.46-0.9-3.65c-0.73-2.07-2.43-3.68-4.73-3.57c-0.63,0.03-1.51,0.22-1.93,0.74c-0.41,0.52,0.36,0.68,0.74,0.66
			c0.72-0.03,1.48,0.54,1.99,1.12c0.68,0.77,1.04,1.73,1.3,2.72c0.29,1.09,0.44,2.21,0.78,3.29c0.33,1.08,0.86,2.07,1.53,2.97
			c0.29,0.4,1.36,0.11,1.7-0.01c0.38-0.13,1.15-0.4,1.1-0.91c-0.09-0.92,0.1-1.83,0.05-2.74c-0.04-0.78-0.33-1.49-0.86-2.07
			c-0.49-0.55-1.14-0.93-1.78-1.27c-0.99-0.53-1.82-0.79-2.96-0.47c-0.26,0.07-1.71,0.59-1.2,1.12c0.9,0.92,1.71,1.92,2.4,3.01
			c0.93-0.31,1.87-0.61,2.8-0.92c-1.53-1.37-3.09-2.78-4.02-4.64C406.38,368.82,403.58,369.79,403.91,370.45L403.91,370.45z"/>
	</g>
</g>
<g>
	<g>
		<path class="st4" d="M397.67,363.43c-1.92,1.29-3.11,3.26-4.14,5.28c-0.99,1.93-1.9,4.07-3.72,5.37c0.8,0.08,1.6,0.16,2.4,0.24
			c-0.6-1.92,1.2-3.76,2.23-5.21c1.19-1.66,2.26-3.46,4.06-4.52c3.49-2.07,7.82-3.58,11.92-3.23c0.67,0.06,1.59-0.21,1.89-0.87
			c0.29-0.64-0.26-1.11-0.87-1.16c-5.11-0.44-10.5,1.35-14.83,4c-2.16,1.33-3.47,3.44-4.92,5.45c-1.3,1.81-3.13,3.92-2.39,6.31
			c0.3,0.97,1.8,0.67,2.4,0.24c1.89-1.35,3.05-3.33,4.09-5.37c0.99-1.93,1.91-4.03,3.77-5.28c0.51-0.35,0.72-1.03,0.17-1.44
			C399.16,362.8,398.21,363.07,397.67,363.43L397.67,363.43z"/>
	</g>
</g>
<g>
	<path class="st11" d="M446.79,379.26c-0.13,1.72-0.83,3.39-2.03,4.83"/>
</g>
<path class="st12" d="M494.7,282.78c-0.18,0.29-0.39,0.55-0.63,0.8c-0.02,0.02-0.03,0.05-0.05,0.07c-0.12,0.17-0.25,0.33-0.4,0.48
	c-0.19,0.28-0.41,0.54-0.66,0.76c-0.15,0.18-0.31,0.35-0.49,0.5c0.91,0.27,11.24,3.35,12.95,4.57c1.79,1.28,13.02,1.02,13.02,1.02
	S519.58,277.07,494.7,282.78z"/>
<path class="st9" d="M508.21,281.53c0,0,4.08,5.38-2.81,8.44l-13.02-4.6v-2.05C492.38,283.33,505.92,279.73,508.21,281.53z"/>
<path class="st8" d="M360.72,251.17l4.94-4.6l10.72-5.45l8.17-2.89l3.4-1.19l8.51-0.68l14.3,1.19l3.74,2.72l6.43,1.02h7.01
	l4.43,3.57l5.11,0.85h4.26l6.3,2.89l3.91,1.02h4.09v2.89l3.91,1.19c0,0,0.51-2.04,1.36,0.68s0,5.62,0,5.62l-3.4,2.38l-5.96,2.04
	l-3.57-1.36l-5.96-3.23l-6.13-1.7l-4.43-2.22l-4.43-1.53l-5.28-1.7l-3.91,0.17l-4.26-1.19h-4.26h-5.79l-6.3-1.28l-7.66-1.28
	l-9.02-0.17c0,0-4.77-0.68-8-0.17s-3.23,0.51-3.23,0.51l-3.4,1.11l-3.06,0.94L360.72,251.17z"/>
<path class="st2" d="M388.38,268.53c0,0,2.64,1.7,4.17,1.87c0,0,6.64,3.91,16.26,3.66c9.62-0.26,14.74,0.01,14.74,0.01
	s-8.27-8.1-9.04-8.27c-0.77-0.17-18.04-1.45-20.85-0.43c-2.81,1.02-4.6,1.19-5.28,1.45C387.7,267.09,387.91,268.24,388.38,268.53z"
	/>
<path class="st9" d="M393.13,265.7c0,0-1.02,3.01,0,3.85s4.79,5.19,15.38,4.14c0,0,4.91-5.47,3.13-7.64c0,0,0.06-0.63-1.15-0.63
	S402,264.44,393.13,265.7z"/>
<path class="st6" d="M448.55,319.6c0,0-32-12.77-20.6,18.21"/>
<path class="st6" d="M434.6,336.96c0,0,16.34-2.89,20.09,7.66c0,0,3.07,13.17,19.06,2.38c7.32-4.94,6.47-4.77,6.47-4.77
	s9.36-2.89-1.19,3.57c0,0,13.79-3.06,7.15-20.6"/>
<path class="st6" d="M404.83,335.91c0,0-21.45,13.96-19.4,34.38c0,0-7.59-17.58,31.27-43.34"/>
<path class="st13" d="M491.28,342.74c0,0-0.34,8.66,2.04,8.5c2.38-0.16,5.45,17.2,5.45,17.2s0.85,5.11-1.02,5.28"/>
<path class="st8" d="M387.95,375.77c0,0,1.71-22.47,5.63-22.81c3.38-0.29,8.93-1.36,10.37-1.64c0.24-0.05,0.48-0.06,0.72-0.03
	l12.41,1.46c0.22,0.03,0.44,0.02,0.66-0.02l8.79-1.47c0.05-0.01,0.1-0.02,0.15-0.03l3.38-0.79c0.08-0.02,0.17-0.03,0.25-0.04
	l9.43-1.16c0.09-0.01,0.19-0.02,0.29-0.02h7.69h0.38c1.29,0,2.34,1.05,2.34,2.34l0,0c0,0.47-0.14,0.93-0.41,1.32l-2.14,3.15
	c-0.23,0.33-0.36,0.72-0.4,1.12l-0.24,2.82c-0.04,0.42-0.19,0.83-0.44,1.18l-1.29,1.79c-0.35,0.48-0.86,0.81-1.44,0.93l-1.95,0.39
	c-0.34,0.07-0.66,0.22-0.94,0.44c-0.73,0.57-2.33,1.59-3.35,0.69l-0.97-0.85c-0.26-0.22-0.56-0.39-0.88-0.48l-2.08-0.61
	c-0.21-0.06-0.44-0.1-0.66-0.1h-2.69c-0.14,0-0.27-0.01-0.41-0.04l-4.44-0.78c-0.13-0.02-0.27-0.04-0.41-0.04h-3.94
	c-0.27,0-0.54-0.05-0.8-0.14l-3.59-1.3c-0.16-0.06-0.34-0.1-0.51-0.12l-6.55-0.82l-3.99-0.49c-0.14-0.02-0.26-0.02-0.4-0.02
	c-1.02,0.05-5.35,0.47-8.04,3.91c-2.68,3.43-4.36,5.16-4.73,5.54c-0.05,0.06-0.11,0.11-0.16,0.17l-2.33,2.85
	c-0.06,0.08-0.12,0.16-0.18,0.24L387.95,375.77z"/>
<path class="st8" d="M465.7,357.23v3.62l-1.66,3.45v2.17l1.66,0.89h1.79l3.06-1.15l4.34-0.38l2.04,0.26l2.43,0.13l3.57,1.15
	l2.17,0.64v1.28l2.87,1.02l-0.7,4.47l1.28,2.55v2.55l1.53,1.79v2.04l2.17-2.04l1.53-1.91v-2.68l2.55-1.28l1.15-4.6
	c0,0-1.4-8.68-4.09-9.06c-2.68-0.38-6.64-2.3-6.64-2.3s-15.57-4.17-20.3-2.6"/>
<path class="st8" d="M369.83,406.15l-9.7,2.55v4.6l2.04,2.3l7.66,6.89l5.36,3.06l3.06,5.11l2.81,2.55l3.69,1.28l3.19,6.89l2.65,2.3
	l7.58,1.28l6.39,4.09l13.27,1.53l5.11-2.3l2.56-1.79h9.1l8.38,0.51l7.45-2.04l2.73-2.81l4.75-3.06l6.14-6.13l1.53-4.6l2.55-2.55
	l3.83-4.09l3.06-3.83l2.55-2.55l3.19-4.6v-3.06l-1.4-1.53l-4.09,5.62l-6.64,7.91l-5.98,6.64l-5.37,4.09c0,0-7.25-1.79-13.14,3.32
	c-5.89,5.11-8.44,4.6-8.44,4.6l-5.62-0.51h-3.32l-2.81-0.26l-3.01-3.32L416.3,435l-5.37-0.77l-8.68-3.57l-9.19-5.62l-8.31-6.13
	l-5.48-4.6l-4.85-3.83L369.83,406.15z"/>
<g>
	<g>
		<path class="st8" d="M356.14,414.51c0.71,0.32,1.41,0.63,2.12,0.95c0.22,0.1,0.5,0.08,0.73,0.06c0.37-0.04,0.78-0.13,1.13-0.26
			c0.11-0.04,0.22-0.09,0.34-0.13c0.17-0.07,0.33-0.17,0.48-0.28c0.08-0.08,0.25-0.27,0.06-0.35c-0.71-0.32-1.41-0.63-2.12-0.95
			c-0.22-0.1-0.5-0.08-0.73-0.06c-0.37,0.04-0.78,0.13-1.13,0.26c-0.11,0.04-0.22,0.09-0.34,0.13c-0.17,0.07-0.33,0.17-0.48,0.28
			C356.12,414.24,355.95,414.42,356.14,414.51L356.14,414.51z"/>
	</g>
</g>
<g>
	<g>
		<path class="st8" d="M360.26,417.58c0.63,0.39,1.25,0.78,1.88,1.18c0.27,0.17,0.67,0.2,0.97,0.17c0.2-0.02,0.4-0.06,0.58-0.14
			c0.18-0.05,0.35-0.14,0.51-0.25c0.22-0.16,0.5-0.4,0.53-0.7c0-0.08-0.01-0.16-0.01-0.25c-0.05-0.17-0.16-0.3-0.32-0.39
			c-0.63-0.39-1.25-0.78-1.88-1.18c-0.27-0.17-0.67-0.2-0.97-0.17c-0.2,0.02-0.4,0.06-0.58,0.14c-0.18,0.05-0.35,0.14-0.51,0.25
			c-0.22,0.16-0.5,0.4-0.53,0.7c0,0.08,0.01,0.16,0.01,0.25C360,417.36,360.1,417.49,360.26,417.58L360.26,417.58z"/>
	</g>
</g>
<g>
	<g>
		<path class="st8" d="M365.17,421.26c3.22,1.78,6.29,3.63,9.85,4.67c0.56-0.63,1.13-1.26,1.69-1.89c-1.67-0.46-3.38-0.85-5.03-1.39
			c-0.69-0.23-1.32-0.53-1.85-1.04c-0.53-0.5-0.95-1.11-1.44-1.64c-1.06-1.15-2.34-1.68-3.77-2.23c-0.66-0.26-1.3-0.55-1.77-1.1
			c-0.25-0.3-0.83-1.18-0.43-1.55c-0.32,0.18-0.63,0.37-0.95,0.55c0.06-0.01,0.12-0.02,0.18-0.03c-0.46-0.04-0.92-0.09-1.38-0.13
			c0.45,0.26,0.67,1.34,0.8,1.81c0.34,1.28,3.24,0.51,2.9-0.78c-0.25-0.95-0.7-2.44-1.73-2.79c-1.26-0.43-2.67,0.55-2.84,1.82
			c-0.3,2.31,2.09,3.55,3.88,4.23c1.02,0.39,1.87,0.81,2.61,1.63c0.67,0.76,1.27,1.58,2.1,2.18c0.92,0.67,2.05,1,3.13,1.3
			c1.3,0.36,2.6,0.71,3.91,1.06c0.7,0.19,1.56,0.01,2.05-0.55c0.42-0.49,0.29-1.15-0.36-1.34c-3.36-0.99-6.25-2.72-9.29-4.4
			c-0.64-0.35-1.49-0.24-2.07,0.19C364.91,420.14,364.53,420.9,365.17,421.26L365.17,421.26z"/>
	</g>
</g>
<g>
	<g>
		<path class="st8" d="M362.55,415.82c-0.9-0.97-2.01-1.61-3.22-2.14c-1.2-0.53-2.44-0.97-3.67-1.45c-0.65-0.25-1.62,0-2.05,0.55
			c-0.44,0.57-0.25,1.1,0.37,1.39c-0.11-0.05-0.05-0.03,0.02,0.02c0.08,0.05,0.16,0.11,0.23,0.17c0.06,0.05,0.12,0.1,0.18,0.15
			c0.06,0.05,0.06,0.05,0,0c0.03,0.03,0.06,0.05,0.08,0.08c0.27,0.27,0.55,0.54,0.85,0.79c0.59,0.48,1.27,0.84,1.96,1.14
			c1.35,0.58,2.82,0.84,4.25,1.1c0.67,0.12,1.59-0.25,1.89-0.88c0.32-0.68-0.29-1.1-0.88-1.2c-0.33-0.06-0.66-0.12-0.98-0.18
			c-0.17-0.03-0.35-0.07-0.52-0.11c0.13,0.03,0.1,0.02-0.01,0c-0.08-0.02-0.15-0.04-0.23-0.06c-0.66-0.16-1.32-0.37-1.94-0.65
			c-0.02-0.01-0.22-0.1-0.12-0.05c0.1,0.05-0.1-0.05-0.12-0.06c-0.15-0.08-0.3-0.17-0.45-0.26c-0.28-0.18-0.54-0.37-0.78-0.59
			c-0.14-0.13,0.09,0.09-0.05-0.04c-0.06-0.05-0.11-0.11-0.17-0.16c-0.16-0.16-0.33-0.32-0.5-0.47c-0.31-0.28-0.65-0.47-1.03-0.65
			c-0.56,0.65-1.12,1.29-1.68,1.94c1.15,0.45,2.31,0.87,3.45,1.35c0.11,0.05,0.22,0.09,0.33,0.14c0.04,0.02,0.44,0.21,0.26,0.12
			c0.25,0.12,0.49,0.26,0.72,0.4c0.23,0.14,0.46,0.3,0.67,0.47c0.25,0.2,0.26,0.21,0.48,0.44c0.49,0.52,1.36,0.52,1.97,0.21
			C362.3,417.07,363.06,416.37,362.55,415.82L362.55,415.82z"/>
	</g>
</g>
<g>
	<g>
		<path class="st8" d="M365.89,422.17c1.7,0,2.18-2.26,0.22-2.26C364.41,419.91,363.93,422.17,365.89,422.17L365.89,422.17z"/>
	</g>
</g>
<g>
	<g>
		<path class="st8" d="M365.48,422.01c0.65,0,1.59-0.18,1.9-0.85c0.27-0.6-0.24-1.09-0.85-1.09c-0.65,0-1.59,0.18-1.9,0.85
			C364.36,421.52,364.87,422.01,365.48,422.01L365.48,422.01z"/>
	</g>
</g>
<g>
	<g>
		<path class="st8" d="M363.96,420.92c0.55,0,1.63-0.21,1.92-0.75c0.3-0.56-0.25-0.7-0.75-0.7c-0.55,0-1.63,0.21-1.92,0.75
			C362.92,420.78,363.47,420.92,363.96,420.92L363.96,420.92z"/>
	</g>
</g>
<g>
	<g>
		<path class="st8" d="M358.89,417.2c0.59,0,1.62-0.19,1.91-0.8c0.28-0.58-0.24-0.87-0.79-0.87c-0.59,0-1.62,0.19-1.91,0.8
			C357.82,416.91,358.33,417.2,358.89,417.2L358.89,417.2z"/>
	</g>
</g>
<g>
	<g>
		<path class="st8" d="M357.76,416.83c0.06,0.73,0.94,1.06,1.53,1.24c0.21,0.07-0.1-0.07,0.02,0c0.07,0.04,0.14,0.07,0.2,0.12
			c0.15,0.09,0.28,0.19,0.42,0.3c0.26,0.2,0.52,0.41,0.8,0.58c0.34,0.21,0.72,0.36,1.09,0.51c0.17,0.07,0.34,0.13,0.52,0.2
			c0.08,0.03,0.15,0.06,0.23,0.09c0.29,0.11-0.1-0.06,0.03,0.01c0.14,0.07,0.27,0.15,0.4,0.24c0.06,0.04,0.11,0.09,0.17,0.13
			c0.1,0.07-0.12-0.14,0.01,0.01c0.09,0.1,0.16,0.22,0.25,0.33c-0.12-0.14-0.01-0.04,0.02,0.06c0.03,0.08,0.04,0.16,0.06,0.24
			c0.93-0.34,1.85-0.68,2.78-1.01c-0.85-0.87-1.69-1.74-2.54-2.61c-0.76-0.79-2.55-0.35-2.79,0.75c-0.19,0.85,0.44,1.62,1.22,1.86
			c0.67,0.2,1.6,0.01,2.05-0.55c0.4-0.5,0.31-1.14-0.36-1.34c-0.12-0.04-0.1-0.02,0.07,0.05c-0.1-0.07-0.08-0.05,0.03,0.05
			c-0.02,0-0.14-0.16-0.13-0.18c0.05,0.12,0.07,0.14,0.04,0.07c-0.01-0.03-0.02-0.07-0.03-0.11c-0.02-0.11-0.02-0.1,0,0.05
			c0-0.05,0.01-0.1,0.03-0.15c-0.93,0.25-1.86,0.5-2.79,0.75c0.85,0.87,1.69,1.74,2.54,2.61c0.46,0.48,1.18,0.47,1.77,0.25
			c0.53-0.19,1.12-0.63,1.01-1.27c-0.27-1.57-2.01-2.03-3.26-2.56c0.15,0.07,0.06,0.03-0.04-0.02c-0.07-0.04-0.14-0.08-0.21-0.12
			c-0.13-0.08-0.26-0.18-0.38-0.27c-0.26-0.2-0.52-0.41-0.8-0.58c-0.32-0.19-0.66-0.32-1.01-0.45c-0.04-0.01-0.07-0.03-0.1-0.04
			c-0.08-0.03-0.05-0.02,0.11,0.06c-0.01-0.02-0.1-0.06-0.12-0.07c-0.17-0.08,0.12,0.16,0.02,0.01c0.08,0.12,0.06,0.16,0.05,0
			c-0.02-0.27-0.39-0.48-0.6-0.55c-0.33-0.11-0.77-0.1-1.1,0C358.31,415.69,357.7,416.11,357.76,416.83L357.76,416.83z"/>
	</g>
</g>
<g>
	<g>
		<path class="st8" d="M362.88,420.4c0.58,0,1.62-0.2,1.91-0.78c0.29-0.58-0.24-0.83-0.78-0.83c-0.58,0-1.62,0.2-1.91,0.78
			C361.82,420.15,362.34,420.4,362.88,420.4L362.88,420.4z"/>
	</g>
</g>
<g>
	<g>
		<path class="st8" d="M359.7,414.49c0.64,0,1.53-0.12,2.05-0.55c0.37-0.3,0.47-0.64-0.17-0.64c-0.64,0-1.53,0.12-2.05,0.55
			C359.16,414.15,359.06,414.49,359.7,414.49L359.7,414.49z"/>
	</g>
</g>
<g>
	<g>
		<path class="st8" d="M360.01,414.48c1.68,0,2.2-2.19,0.24-2.19C358.57,412.29,358.04,414.48,360.01,414.48L360.01,414.48z"/>
	</g>
</g>
<g>
	<g>
		<path class="st8" d="M359.55,409.41c-0.35,0.45-0.5,0.95-0.59,1.5c-0.04,0.25-0.08,0.5-0.13,0.75c-0.03,0.13-0.07,0.26-0.11,0.39
			c-0.02,0.05-0.04,0.1-0.06,0.16c-0.01,0.02-0.12,0.2-0.06,0.12c0.06-0.09-0.05,0.06-0.07,0.08c-0.03,0.03-0.13,0.12-0.14,0.16
			c0.03-0.08,0.15-0.13,0.01-0.02c-0.22,0.17,0.14-0.07,0.04-0.01c-0.05,0.03-0.11,0.05-0.16,0.08c0.21-0.1,0.27-0.12,0.17-0.08
			c-0.03,0.01-0.07,0.03-0.1,0.04c0.08-0.03,0.16-0.05,0.24-0.08c-0.05,0.01-0.09,0.03-0.14,0.04c-0.24,0.07,0.33-0.05,0.15-0.03
			c-0.05,0.01-0.14,0-0.19,0.03c0.2-0.02,0.25-0.02,0.14-0.02c-0.04,0-0.09,0-0.13,0c-0.09,0-0.18,0.01-0.27,0
			c0.05,0,0.09,0,0.14,0.01c-0.04,0-0.09-0.01-0.13-0.01c-0.34-0.03-0.68-0.09-1.02-0.14c-0.34-0.06-0.75,0.01-1.07,0.1
			c-0.32,0.09-0.72,0.23-0.98,0.45c-0.15,0.13-0.37,0.31-0.31,0.54c0.06,0.22,0.36,0.28,0.54,0.31c0.92,0.15,1.86,0.25,2.79,0.1
			c1-0.16,2.05-0.53,2.8-1.23c0.51-0.48,0.75-1.07,0.87-1.75c0.05-0.29,0.09-0.59,0.16-0.88c0.03-0.13,0.07-0.26,0.12-0.38
			c0.02-0.06,0.05-0.12,0.08-0.18c-0.08,0.17,0.04-0.06,0.07-0.1c0.12-0.16,0.18-0.35,0.02-0.5c-0.17-0.17-0.55-0.19-0.76-0.18
			c-0.38,0.02-0.78,0.09-1.13,0.24C360.07,409.02,359.75,409.16,359.55,409.41L359.55,409.41z"/>
	</g>
</g>
<g>
	<g>
		<path class="st8" d="M365.66,422.09c1.14,0.7,2.29,1.39,3.43,2.09c1.06,0.64,2.1,1.33,3.24,1.83c0.52,0.23,1.06,0.4,1.62,0.54
			c0.5,0.12,0.98,0.25,1.34,0.64c0.29,0.32,0.47,0.73,0.75,1.06c0.31,0.39,0.72,0.55,1.19,0.63c0.56,0.1,1.29-0.11,1.78-0.38
			c0.17-0.09,0.9-0.6,0.49-0.83c-0.91-0.5-1.93-0.66-2.86-1.1c-1.01-0.48-1.99-1.04-2.98-1.57c-2.03-1.09-4.06-2.2-6.07-3.33
			c-0.56-0.32-1.32-0.15-1.89,0.07c-0.16,0.06-1.34,0.69-0.82,0.98c2,1.12,4.01,2.22,6.03,3.31c1,0.54,2.01,1.08,3.02,1.6
			c0.43,0.22,0.85,0.41,1.31,0.56c0.52,0.16,1.07,0.27,1.55,0.53c0.76-0.4,1.51-0.81,2.27-1.21c-0.19-0.03-0.44-0.5-0.54-0.66
			c-0.24-0.37-0.46-0.75-0.83-1c-0.88-0.61-2.05-0.66-3.01-1.1c-1.04-0.46-2-1.11-2.97-1.7c-1.11-0.68-2.22-1.35-3.33-2.03
			c-0.54-0.33-1.33-0.14-1.89,0.07C366.3,421.18,365.15,421.78,365.66,422.09L365.66,422.09z"/>
	</g>
</g>
<path class="st14" d="M305.91,330.32c0,0,5.74-3.26,8.17-2.92"/>
<path class="st14" d="M297.74,344.28c0,0,14.65-9.84,16.34-9.87"/>
<path class="st14" d="M294,358.23c0,0,4.77-10.21,18.72-15.49"/>
<path class="st14" d="M292.46,367.78c0,0,3.58-13.29,21.63-20.44"/>
<line class="st14" x1="294" y1="373.72" x2="314.09" y2="358.23"/>
<path class="st14" d="M297.74,381.67c0,0,12.87-9.1,16.34-11.38"/>
<path class="st14" d="M304.04,389.21c0,0,9.36-5.45,10.04-9.36"/>
<path class="st14" d="M317.74,389.21c0,0-8.43,8.51-10.21,7.49"/>
<path class="st14" d="M322.6,395.17c0,0-9.96,12.26-11.74,10.98"/>
<path class="st14" d="M326.68,399.26c0,0-2.3,12.68-9.96,14.64"/>
<path class="st14" d="M330.77,404.55c0,0,1.02,18.45-9.06,18.45"/>
<path class="st14" d="M335.87,408.19c0,0,0.06,23.49-5.08,25.02"/>
<line class="st14" x1="344.3" y1="417.98" x2="340.47" y2="439.6"/>
<path class="st14" d="M352.98,424.88c0,0-5.11,18.29-4.09,23.4"/>
<path class="st14" d="M362.33,431.17c0,0-5.66,13.53-4.83,19.4"/>
<path class="st14" d="M372.19,436.58c0,0-5.42,11.44-8.74,21.4"/>
<path class="st14" d="M380.55,439.6c0,0-5.55,14.3-4.69,22.21"/>
<line class="st14" x1="387.95" y1="445.47" x2="384.76" y2="465.13"/>
<line class="st14" x1="397.91" y1="448.28" x2="395.62" y2="466.4"/>
<line class="st14" x1="407.77" y1="450.7" x2="406.34" y2="468.7"/>
<path class="st14" d="M416.81,452.36c0,0-1.53,14.3,0,15.06"/>
<path class="st14" d="M425.5,448.28c0,0-0.27,17.11,1.27,18.13"/>
<path class="st14" d="M434.6,446.49c0,0-1.45,11.49,1.11,15.32"/>
<path class="st14" d="M442.98,448.28c0,0-0.4,12.77,2.8,11.62"/>
<path class="st14" d="M450.43,446.49c0,0-0.76,9.45,2.73,9.7"/>
<line class="st14" x1="456.38" y1="440.87" x2="459.7" y2="450.57"/>
<line class="st14" x1="462.65" y1="436.58" x2="462.65" y2="443.17"/>
<path class="st15" d="M563.11,516.7c0,0,13.79,24.38,4.6,78.57"/>
<path class="st15" d="M137.58,467.43l13.44-16.09c0,0,4.34-18.38,22.47-18.13c0,0,27.57-30.55,42.38-26.64
	c0,0,64.18-43.33,74.38-40.58"/>
<path class="st15" d="M618.77,595.28c2.04,0,4.63-9.83,5.79-16.54c1.16-6.71-2.11-40.03-2.11-40.03l-7.99-59.62
	c-4.31-39.66-13.3-50.46-12.72-54.2c0.58-3.74-15.64-34.3-36.99-56.48c-21.34-22.18-31.77-21.06-31.77-21.06l-7.76-3.49"/>
<path class="st6" d="M375.02,266.32c0,0,17.53-3.24,20.26-2.98c0,0,23.23-0.88,24.51-0.01c1.28,0.87,8.68,3.93,14.81,11.59"/>
<path class="st16" d="M261.06,595.28c0,0,15.32-21.96,16.85-39.29s4.6,39.29,4.6,39.29H261.06z"/>
<path class="st8" d="M436.23,406.53l2.79-1.18l2.98-0.09l4.28,0.64l4.91,0.64h3.15l-0.67,3.88c0,0,1.97,2.08,0,1.23
	c-1.97-0.85-1.97-0.85-1.97-0.85l-1.49-1.02l-2.13,2.08l-1.52-1.44l-2.02,2.08l-1.33-0.85v-1.23h-1.39l-2.81-1.53l-1.51,1.53
	l-1.27,0.72v-3.83v-1.95V406.53z"/>
<path class="st9" d="M392.67,267.13l21.07,0.64l-1.15,2.94c0,0-19.75-0.72-19.83-1.77c-0.08-1.06-0.08-1.06-0.08-1.06"/>
<path class="st8" d="M393.66,265.38c0,0,14.55-1.52,19.29,0.27s-0.73,8.34-0.73,8.34s-12.65,1.1-16.05-1.98
	C392.76,268.93,391.83,270.79,393.66,265.38z"/>
<path class="st8" d="M509.45,281.71c-3.09-1.02-10.84,0.33-14.74,1.12c-0.17,0.26-0.37,0.49-0.59,0.72c-0.14,0.21-0.3,0.4-0.48,0.59
	c-0.12,0.16-0.27,0.31-0.42,0.45c-0.22,0.3-0.49,0.57-0.78,0.81c3.05,0.64,13.55,4.85,13.55,4.85s2.67,0.48,3.99,0.59
	C511.3,290.95,513.66,283.1,509.45,281.71z"/>
<path class="st6" d="M510.31,281.41c-0.8-0.09-1.61-0.18-2.41-0.27c-0.46-0.05-0.93-0.1-1.39-0.13c-0.43-0.02-0.86-0.02-1.29-0.02
	c-1.46,0.01-2.93,0.02-4.39,0.16c-0.84,0.08-1.68,0.22-2.51,0.35c-0.71,0.11-1.41,0.22-2.12,0.33c-0.58,0.09-1.18,0.19-1.66,0.53
	c-0.21,0.16-0.39,0.35-0.57,0.55c-0.21,0.23-0.42,0.46-0.62,0.69c-0.52,0.58-1.04,1.16-1.44,1.83"/>
<path class="st17" d="M174.22,477.64c9.39,6.09,19.67,11.64,19.67,11.64C186.49,483.97,179.96,480.23,174.22,477.64z"/>
<path class="st17" d="M259.65,379.74c-0.5,0.52-1.14,0.92-1.91,1.15c-0.54,0.4-1.2,0.68-1.97,0.81c-0.32,0.24-0.68,0.44-1.08,0.6
	c-0.51,0.52-1.16,0.94-1.95,1.16l-31.28,20.39l-0.55,0.12c-0.47,0.57-1.09,1.04-1.85,1.32c-0.41,0.33-0.9,0.59-1.45,0.76
	c-0.75,0.57-1.73,0.92-2.94,0.92c-0.24,0-0.46-0.02-0.68-0.04c-0.22,0.03-0.44,0.04-0.68,0.04c-0.83,0-1.55-0.17-2.16-0.45
	c-5.84,2.51-21.13,9.99-33.26,23.94l-1.78,0.57c-0.7,1.52-2.14,2.67-4.32,2.67c-0.62,0-1.18-0.1-1.69-0.26
	c-0.16,0.03-0.32,0.06-0.49,0.08c-0.38,0.23-0.81,0.41-1.29,0.53c-0.74,0.53-1.68,0.85-2.83,0.85c-0.29,0-0.56-0.03-0.82-0.07
	c-3.16,2.09-7.41,6.23-12.46,14.34c-0.15,0.93-0.52,1.82-1.13,2.53c-0.32,1.29-1.1,2.44-2.34,3.08c-0.36,0.67-0.86,1.25-1.52,1.67
	l-11.53,14.09l2.9,7.49c0,0,9.7-12.09,35.64-0.4c-12.1-7.84-22.71-16.59-7.98-15.54c0,0,30.04-6.01,62.72,4.63
	c0,0,34.72,11.7,48-7.72C289.47,440.69,262.76,385.96,259.65,379.74z"/>
</svg>
